<svg width="500" height="495" viewBox="0 0 500 495" fill="none" xmlns="http://www.w3.org/2000/svg">
<rect x="87" y="212" width="362" height="283" fill="url(#paint0_linear_0_1)" fill-opacity="0.28"/>
<rect x="131" y="212" width="60" height="283" fill="url(#paint1_linear_0_1)" fill-opacity="0.28"/>
<rect x="282" y="212" width="60" height="283" fill="url(#paint2_linear_0_1)" fill-opacity="0.28"/>
<rect x="397" y="212" width="24" height="283" fill="url(#paint3_linear_0_1)" fill-opacity="0.28"/>
<g clip-path="url(#clip0_0_1)">
<g style="mix-blend-mode:screen">
<path style="mix-blend-mode:screen" d="M62.7597 135C62.7597 141.966 62.9721 148.741 63.3756 155.198C65.5632 191.282 73.5276 218 83 218C92.4724 218 100.522 191.006 102.667 154.667C103.049 148.359 103.24 141.775 103.24 135C103.24 128.225 103.049 121.683 102.667 115.418C100.522 79.0154 92.5361 52 83 52C73.4639 52 65.4995 78.9941 63.3331 115.333C62.9509 121.641 62.7597 128.225 62.7597 135Z" fill="url(#paint4_radial_0_1)"/>
<path style="mix-blend-mode:screen" d="M83 155.24C128.833 155.24 166 146.171 166 135C166 123.829 128.833 114.76 83 114.76C37.1674 114.76 0 123.829 0 135C0 146.171 37.1674 155.24 83 155.24Z" fill="url(#paint5_radial_0_1)"/>
</g>
<g style="mix-blend-mode:screen" filter="url(#filter0_d_0_1)">
<path d="M74.9081 134.363L70.1719 134.49L74.8869 135C79.0496 135.446 82.2566 138.908 82.3628 143.092L82.4903 147.828L83 143.113C83.446 138.95 86.9079 135.743 91.0918 135.637L95.828 135.51L91.1131 135C86.9503 134.554 83.7433 131.092 83.6371 126.908L83.5097 122.172L83 126.887C82.554 131.05 79.0921 134.257 74.9081 134.363Z" fill="url(#paint6_radial_0_1)" style="mix-blend-mode:screen"/>
</g>
</g>
<g clip-path="url(#clip1_0_1)">
<g style="mix-blend-mode:screen">
<path style="mix-blend-mode:screen" d="M323.782 46C323.782 49.8608 323.9 53.6157 324.124 57.194C325.336 77.1924 329.75 92 335 92C340.25 92 344.711 77.0394 345.9 56.8997C346.112 53.4038 346.217 49.7549 346.217 46C346.217 42.2451 346.112 38.6198 345.9 35.1474C344.711 14.9724 340.285 0 335 0C329.715 0 325.301 14.9606 324.1 35.1003C323.888 38.5962 323.782 42.2451 323.782 46Z" fill="url(#paint7_radial_0_1)"/>
<path style="mix-blend-mode:screen" d="M335 57.2177C360.401 57.2177 381 52.1916 381 46.0002C381 39.8088 360.401 34.7827 335 34.7827C309.599 34.7827 289 39.8088 289 46.0002C289 52.1916 309.599 57.2177 335 57.2177Z" fill="url(#paint8_radial_0_1)"/>
</g>
<g style="mix-blend-mode:screen" filter="url(#filter1_d_0_1)">
<path d="M330.515 45.647L327.891 45.7176L330.504 46.0001C332.811 46.2473 334.588 48.166 334.647 50.4848L334.718 53.1097L335 50.4966C335.247 48.1895 337.166 46.4121 339.485 46.3533L342.11 46.2826L339.496 46.0001C337.189 45.753 335.412 43.8343 335.353 41.5155L335.283 38.8906L335 41.5037C334.753 43.8108 332.834 45.5882 330.515 45.647Z" fill="url(#paint9_radial_0_1)" style="mix-blend-mode:screen"/>
</g>
</g>
<path d="M438.271 185.932C439.222 185.932 439.991 185.162 439.991 184.21C439.991 183.258 439.222 182.488 438.271 182.488C437.319 182.488 436.551 183.258 436.551 184.21C436.551 185.162 437.319 185.932 438.271 185.932Z" fill="white"/>
<path d="M446.944 135.38C447.896 135.38 448.664 134.611 448.664 133.659C448.664 132.706 447.896 131.937 446.944 131.937C445.993 131.937 445.224 132.706 445.224 133.659C445.224 134.611 445.993 135.38 446.944 135.38Z" fill="white"/>
<path d="M256.172 71.5317C257.124 71.5317 257.892 70.7625 257.892 69.8101C257.892 68.8576 257.124 68.0884 256.172 68.0884C255.221 68.0884 254.452 68.8576 254.452 69.8101C254.452 70.7625 255.221 71.5317 256.172 71.5317Z" fill="white"/>
<path d="M207.317 59.4434C208.269 59.4434 209.037 58.6741 209.037 57.7217C209.037 56.7693 208.269 56 207.317 56C206.366 56 205.597 56.7693 205.597 57.7217C205.597 58.6741 206.366 59.4434 207.317 59.4434Z" fill="white"/>
<path d="M171.124 138.824C172.076 138.824 172.844 138.054 172.844 137.102C172.844 136.15 172.076 135.38 171.124 135.38C170.173 135.38 169.404 136.15 169.404 137.102C169.404 138.054 170.173 138.824 171.124 138.824Z" fill="white"/>
<path d="M110.193 248.095C111.144 248.095 111.913 247.326 111.913 246.374C111.913 245.421 111.144 244.652 110.193 244.652C109.241 244.652 108.473 245.421 108.473 246.374C108.473 247.326 109.241 248.095 110.193 248.095Z" fill="white"/>
<path d="M75.72 227.985C76.6715 227.985 77.44 227.216 77.44 226.263C77.44 225.311 76.6715 224.542 75.72 224.542C74.7685 224.542 74 225.311 74 226.263C74 227.216 74.7685 227.985 75.72 227.985Z" fill="white"/>
<path d="M300.745 330.516C301.697 330.516 302.465 329.747 302.465 328.794C302.465 327.842 301.697 327.073 300.745 327.073C299.794 327.073 299.025 327.842 299.025 328.794C299.025 329.747 299.794 330.516 300.745 330.516Z" fill="white"/>
<path d="M181.847 316.193C182.798 316.193 183.567 315.424 183.567 314.472C183.567 313.519 182.798 312.75 181.847 312.75C180.895 312.75 180.127 313.519 180.127 314.472C180.127 315.424 180.895 316.193 181.847 316.193Z" fill="white"/>
<path d="M379.499 244.505C380.45 244.505 381.219 243.736 381.219 242.784C381.219 241.831 380.45 241.062 379.499 241.062C378.547 241.062 377.779 241.831 377.779 242.784C377.779 243.736 378.547 244.505 379.499 244.505Z" fill="white"/>
<path d="M410.751 178.532C411.703 178.532 412.471 177.763 412.471 176.811C412.471 175.858 411.703 175.089 410.751 175.089C409.8 175.089 409.031 175.858 409.031 176.811C409.031 177.763 409.8 178.532 410.751 178.532Z" fill="white"/>
<path d="M328.009 177.36C328.96 177.36 329.729 176.591 329.729 175.638C329.729 174.686 328.96 173.917 328.009 173.917C327.057 173.917 326.289 174.686 326.289 175.638C326.289 176.591 327.057 177.36 328.009 177.36Z" fill="white"/>
<path d="M303.856 157.213C304.807 157.213 305.576 156.444 305.576 155.491C305.576 154.539 304.807 153.77 303.856 153.77C302.904 153.77 302.136 154.539 302.136 155.491C302.136 156.444 302.904 157.213 303.856 157.213Z" fill="white"/>
<path d="M125.16 321.175C126.112 321.175 126.88 320.406 126.88 319.454C126.88 318.501 126.112 317.732 125.16 317.732C124.209 317.732 123.44 318.501 123.44 319.454C123.44 320.406 124.209 321.175 125.16 321.175Z" fill="white"/>
<path d="M283.838 292.126C284.79 292.126 285.558 291.357 285.558 290.405C285.558 289.452 284.79 288.683 283.838 288.683C282.887 288.683 282.118 289.452 282.118 290.405C282.118 291.357 282.887 292.126 283.838 292.126Z" fill="white"/>
<path d="M118.244 125.6C119.195 125.6 119.964 124.83 119.964 123.878C119.964 122.926 119.195 122.156 118.244 122.156C117.292 122.156 116.524 122.926 116.524 123.878C116.524 124.83 117.292 125.6 118.244 125.6Z" fill="white"/>
<path d="M230.885 157.799C231.836 157.799 232.605 157.03 232.605 156.077C232.605 155.125 231.836 154.355 230.885 154.355" fill="white"/>
<path d="M304.441 93.4009C305.393 93.4009 306.161 92.6316 306.161 91.6792C306.161 90.7268 305.393 89.9575 304.441 89.9575C303.49 89.9575 302.721 90.7268 302.721 91.6792C302.721 92.6316 303.49 93.4009 304.441 93.4009Z" fill="white"/>
<path d="M311.065 223.699C313.151 223.699 314.835 222.014 314.835 219.926C314.835 217.838 313.151 216.153 311.065 216.153C308.979 216.153 307.296 217.838 307.296 219.926C307.296 222.014 308.979 223.699 311.065 223.699Z" fill="white"/>
<path d="M242.925 337C245.01 337 246.694 335.315 246.694 333.227C246.694 331.139 245.01 329.454 242.925 329.454C240.839 329.454 239.155 331.139 239.155 333.227C239.155 335.315 240.839 337 242.925 337Z" fill="white"/>
<path d="M122.269 86.8068C124.355 86.8068 126.039 85.0851 126.039 83.0338C126.039 80.9824 124.355 79.2607 122.269 79.2607C120.183 79.2607 118.5 80.9458 118.5 83.0338C118.5 85.1218 120.183 86.8068 122.269 86.8068Z" fill="white"/>
<path d="M167.099 196.665C169.185 196.665 170.868 194.943 170.868 192.892C170.868 190.84 169.185 189.119 167.099 189.119C165.013 189.119 163.329 190.804 163.329 192.892C163.329 194.98 165.013 196.665 167.099 196.665Z" fill="white"/>
<path d="M209.037 263.7C211.123 263.7 212.806 262.015 212.806 259.927C212.806 257.839 211.123 256.154 209.037 256.154C206.951 256.154 205.268 257.839 205.268 259.927C205.268 262.015 206.951 263.7 209.037 263.7Z" fill="white"/>
<path d="M87.2109 289.269C89.2969 289.269 90.9803 287.548 90.9803 285.496C90.9803 283.445 89.2969 281.723 87.2109 281.723C85.125 281.723 83.4416 283.408 83.4416 285.496C83.4416 287.584 85.125 289.269 87.2109 289.269Z" fill="white"/>
<path d="M121.098 303.665C123.184 303.665 124.868 301.98 124.868 299.892C124.868 297.804 123.184 296.119 121.098 296.119C119.012 296.119 117.329 297.804 117.329 299.892C117.329 301.98 119.012 303.665 121.098 303.665Z" fill="white"/>
<path d="M386.013 144.575C387.403 144.575 388.501 143.439 388.501 142.047C388.501 140.655 387.403 139.556 386.013 139.556C384.622 139.556 383.488 140.692 383.488 142.047C383.488 143.402 384.622 144.575 386.013 144.575Z" fill="white"/>
<path d="M248.707 103.365C250.097 103.365 251.195 102.229 251.195 100.837C251.195 99.4451 250.097 98.3462 248.707 98.3462C247.316 98.3462 246.182 99.4818 246.182 100.837C246.182 102.192 247.316 103.365 248.707 103.365Z" fill="white"/>
<path d="M191.435 84.646C192.825 84.646 193.96 83.5104 193.96 82.1184C193.96 80.7264 192.825 79.6274 191.435 79.6274C190.044 79.6274 188.91 80.7264 188.91 82.1184C188.91 83.5104 190.044 84.646 191.435 84.646Z" fill="white"/>
<path d="M470.475 70.396C471.866 70.396 472.963 69.2604 472.963 67.8684C472.963 66.4764 471.866 65.3408 470.475 65.3408C469.084 65.3408 467.95 66.4398 467.95 67.8684C467.95 69.297 469.084 70.396 470.475 70.396Z" fill="white"/>
<path d="M246.072 232.051C247.462 232.051 248.597 230.915 248.597 229.523C248.597 228.131 247.462 226.996 246.072 226.996C244.681 226.996 243.547 228.131 243.547 229.523C243.547 230.915 244.681 232.051 246.072 232.051Z" fill="white"/>
<path d="M466.632 248.425C468.023 248.425 469.157 247.29 469.157 245.898C469.157 244.506 468.023 243.37 466.632 243.37C465.242 243.37 464.107 244.506 464.107 245.898C464.107 247.29 465.242 248.425 466.632 248.425Z" fill="white"/>
<path d="M346.38 153.037C347.77 153.037 348.905 151.901 348.905 150.509C348.905 149.117 347.77 147.981 346.38 147.981C344.989 147.981 343.855 149.117 343.855 150.509C343.855 151.901 344.989 153.037 346.38 153.037Z" fill="white"/>
<path d="M442.333 82.0815C443.724 82.0815 444.822 80.9459 444.822 79.5539C444.822 78.1619 443.687 77.0264 442.333 77.0264C440.979 77.0264 439.808 78.1619 439.808 79.5539C439.808 80.9459 440.942 82.0815 442.333 82.0815Z" fill="white"/>
<path d="M444.675 214.907C446.066 214.907 447.164 213.772 447.164 212.38C447.164 210.988 446.066 209.889 444.675 209.889C443.284 209.889 442.15 211.024 442.15 212.38C442.15 213.735 443.284 214.907 444.675 214.907Z" fill="white"/>
<path d="M385.72 68.6381C385.72 67.9054 385.134 67.3193 384.439 67.3193C383.744 67.3193 383.158 67.9054 383.158 68.6381" fill="white"/>
<path d="M358.456 288.536C359.188 288.536 359.737 287.95 359.737 287.254C359.737 286.558 359.152 285.972 358.456 285.972C357.761 285.972 357.175 286.558 357.175 287.254C357.175 287.95 357.761 288.536 358.456 288.536Z" fill="white"/>
<path d="M92.0416 179.558C92.7735 179.558 93.3224 178.972 93.3224 178.276C93.3224 177.58 92.7369 176.957 92.0416 176.957C91.3462 176.957 90.7607 177.543 90.7607 178.276C90.7607 179.008 91.3462 179.558 92.0416 179.558Z" fill="white"/>
<path d="M136.725 68.9675C134.639 68.9675 132.955 67.2824 132.955 65.1944C132.955 63.1064 134.639 61.4214 136.725 61.4214C138.811 61.4214 140.494 63.1064 140.494 65.1944C140.494 67.2824 138.811 68.9675 136.725 68.9675Z" fill="white"/>
<g clip-path="url(#clip2_0_1)">
<g style="mix-blend-mode:screen">
<path style="mix-blend-mode:screen" d="M423.221 272.624C419.477 274.785 415.903 277.001 412.558 279.221C393.847 291.591 381.961 304.16 384.9 309.25C387.838 314.34 404.841 310.29 425.033 300.169C428.542 298.418 432.139 296.478 435.779 294.376C439.42 292.274 442.876 290.142 446.124 287.993C465.02 275.546 477.059 262.874 474.1 257.75C471.142 252.625 454.166 256.72 433.967 266.83C430.458 268.582 426.861 270.522 423.221 272.624Z" fill="url(#paint10_radial_0_1)"/>
<path style="mix-blend-mode:screen" d="M418.624 289.779C432.843 314.407 449.247 331.566 455.25 328.1C461.253 324.634 454.595 301.849 440.376 277.22C426.157 252.592 409.753 235.434 403.75 238.899C397.747 242.365 404.405 265.151 418.624 289.779Z" fill="url(#paint11_radial_0_1)"/>
</g>
<g style="mix-blend-mode:screen" filter="url(#filter2_d_0_1)">
<path d="M427.332 278.954L425.794 276.449L426.983 279.14C428.035 281.516 427.17 284.313 424.954 285.668L422.449 287.206L425.14 286.017C427.516 284.965 430.313 285.83 431.668 288.046L433.206 290.551L432.017 287.86C430.965 285.484 431.831 282.687 434.046 281.332L436.551 279.794L433.86 280.983C431.484 282.035 428.687 281.169 427.332 278.954Z" fill="url(#paint12_radial_0_1)" style="mix-blend-mode:screen"/>
</g>
</g>
<path d="M267.873 399L297.03 283.433L399.932 341.431L338.983 239.94L452 210.5L338.983 181.06L399.932 79.5576L297.03 137.556L267.873 22L237.865 137.556L134.52 76.9255L196.343 181.06L78 210.5L196.343 239.94L134.52 344.074L237.865 283.433L267.873 399Z" fill="#00FFBF"/>
<g opacity="0.2">
<path d="M366.557 221.12C360.822 229.523 356.861 236.821 345.344 236.163C336.284 235.645 327.576 229.899 319.714 225.891C312.099 222.013 304.095 218.464 295.387 218.523C282.167 219.357 271.966 226.855 262.835 235.881C258.169 240.487 253.856 245.423 249.238 250.077C242.763 256.623 235.053 259.114 226.627 262.181C212.408 267.364 200.045 279.245 190.197 290.433C180.243 301.738 173.356 316.204 160.3 324.442C146.068 333.433 128.829 323.773 113.575 328.908C104.373 331.999 97.5099 340.213 94.1841 349.039C87.4973 366.82 96.0174 388.173 108.486 401.17C114.691 407.645 123.058 412.534 132.025 413.709C142.766 415.12 150.311 410.666 159.489 406.035C165.095 403.215 172.839 404.261 178.95 404.214C185.79 404.155 192.571 403.85 199.34 402.874C211.808 401.088 223.161 395.212 229.166 383.777C235.324 372.049 233.972 357.477 232.985 344.773C232.057 332.915 229.213 317.18 237.933 307.449C245.701 298.788 259.297 300.375 269.616 298.436C279.522 296.579 285.998 288.858 291.65 281.184C298.725 271.571 307.092 263.556 320.078 266.588C332.464 269.491 341.701 280.244 353.735 284.345C363.677 287.73 375.911 285.626 385.841 283.311C395.783 280.996 406.701 276.648 412.577 267.846C416.22 262.393 415.103 255.283 416.267 249.16C417.865 240.758 427.995 238.701 434.94 236.879C446.61 233.812 458.585 229.288 469.103 223.318C478.751 217.841 486.178 209.521 488.27 198.427C490.151 188.509 488.705 175.147 484.686 165.851C477.271 148.682 455.224 165.005 446.128 171.328C437.056 177.627 428.594 184.772 419.757 191.4C415.068 194.914 410.273 198.369 405.103 201.13C399.544 204.104 393.127 205.467 387.122 207.253C378.308 209.885 371.786 213.458 366.557 221.108L366.557 221.12Z" fill="url(#paint13_linear_0_1)"/>
<path d="M288.665 133.085C282.648 133.379 276.796 129.877 271.625 127.268C262.553 122.697 253.739 119.7 243.468 121.216C234.948 122.485 224.242 126.951 219.212 134.307C208.894 149.385 222.056 172.818 234.595 182.396C247.546 192.291 261.73 186.38 274.034 178.624C285.657 171.29 300.922 157.494 315.636 164.181C327.505 170.245 334.756 182.196 347.072 187.672C359.071 193.008 373.467 192.914 384.772 186.039C391.047 182.22 401.847 171.972 398.286 163.569C395.725 157.529 384.572 159.21 379.73 159.738C370.881 160.69 360.974 163.24 352.913 158.187C348.447 155.378 345.415 150.149 342.477 145.918C338.787 140.618 335.156 135.201 331.148 130.135C324.238 121.416 312.075 120.158 302.92 125.928C298.02 129.019 294.788 132.78 288.677 133.073L288.665 133.085Z" fill="url(#paint14_linear_0_1)"/>
<path d="M228.602 89.0395C235.465 88.5812 239.836 89.345 246.124 92.8706C251.471 95.8673 256.312 99.7336 262.6 100.227C268.44 100.686 274.528 99.1696 279.969 97.1953C290.111 93.5052 299.829 86.3013 303.379 75.7716C303.872 74.3027 304.013 72.7162 304.189 71.1884C304.601 67.4278 298.725 67.4631 298.313 71.1884C298.196 72.2814 297.949 73.339 297.632 74.3497L296.374 75.4426C297.279 71.1062 296.492 66.9225 294.67 62.1748C293.213 58.3672 289.006 53.4196 284.646 53.0318C280.98 52.7028 278.03 55.0179 275.115 56.8982C271.096 59.4953 267.383 60.365 262.788 59.4366C250.789 57.0275 229.93 48.002 220.129 59.6599C214.546 66.2879 215.933 78.5803 220.27 85.3964C222.126 88.3226 225.323 89.2628 228.602 89.0395Z" fill="url(#paint15_linear_0_1)"/>
<path d="M40.1727 327.412C41.4772 337.601 51.7248 342.031 60.7149 339.105C71.4796 335.615 80.129 325.685 87.9557 318.081C93.2205 312.957 99.4607 305.895 106.629 303.732C111.401 302.298 114.938 301.441 118.181 298.456C118.887 298.726 119.721 298.702 120.567 298.174C134.187 289.701 151.11 284.6 162.474 272.919C167.081 268.183 170.195 262.084 173.333 256.337C177.011 249.615 180.396 244.82 187.388 241.4C198.223 236.112 210.962 234.032 219.4 224.725C223.09 220.658 231.152 209.541 223.936 204.876C217.919 200.974 208.283 203.607 201.714 204.276C196.578 204.794 191.854 204.841 187 202.702C182.053 200.516 179.867 195.733 177.587 191.185C172.275 180.596 163.062 174.439 151.251 173.263C139.629 172.112 129.263 179.268 123.164 188.599C117.147 197.801 117.112 208.707 117.077 219.284C117.041 230.13 115.337 238.545 107.381 246.442C102.046 251.742 95.7237 254.598 88.9311 257.524C82.4206 260.333 77.5436 264.434 73.2071 269.969C69.1763 275.128 65.9915 280.898 62.748 286.575C59.622 292.051 55.7674 296.399 51.76 301.217C45.8254 308.351 38.8918 317.576 40.1492 327.412L40.1727 327.412Z" fill="url(#paint16_linear_0_1)"/>
<path d="M474.897 266.527C474.121 265.904 473.252 265.74 472.452 265.881C472.758 264.694 473.04 263.519 473.299 262.332C474.109 258.642 468.445 257.067 467.634 260.769C464.931 273.132 459.608 284.731 448.878 292.041C437.42 299.856 423.882 299.35 410.661 299.938C403.222 300.267 395.842 301.418 388.685 303.475C380.694 305.778 373.843 310.62 365.934 313.041C353.359 316.884 339.88 311.278 327.223 315.709C320.995 317.895 315.765 321.69 308.973 322.102C301.005 322.584 292.72 319.563 284.823 318.694C273.365 317.436 256.383 322.443 255.854 336.204C255.654 341.339 258.839 346.569 261.002 351.011C264.104 357.369 265.573 363.88 263.152 370.731C259.321 381.578 245.959 387.959 237.063 393.952C230.694 398.242 218.213 406.95 224.43 415.94C230.153 424.213 244.949 422.639 253.222 420.829C280.486 414.847 297.503 388.594 311.84 366.97C320.019 354.631 328.998 344.031 342.136 336.792C354.182 330.163 368.096 327.966 381.693 328.142C396.206 328.318 410.297 332.279 424.834 332.526C438.995 332.772 453.626 330.152 465.695 322.443C475.226 316.367 484.075 304.803 488.259 294.379C493.688 280.865 484.533 274.272 474.909 266.527L474.897 266.527Z" fill="url(#paint17_linear_0_1)"/>
<path d="M122.083 165.215C122.389 165.309 122.741 165.368 123.129 165.344C123.611 165.391 124.022 165.344 124.386 165.203C129.146 164.616 132.73 162.347 136.256 158.939C138.43 156.824 140.369 154.556 142.872 152.793C147.02 149.879 151.58 150.807 156.093 151.971C166.176 154.544 179.267 157.306 188.563 151.03C198.529 144.308 192.218 130.77 201.149 124.036C210.633 116.88 221.127 108.9 214.652 95.9378C209.094 84.8323 195.767 89.7093 187.74 94.4688C182.722 97.4421 178.433 100.874 174.473 105.163C171.734 108.124 169.008 111.004 164.719 111.286C162.65 111.427 160.124 107.549 158.631 106.373C150.781 100.168 143.166 104.634 138.841 112.179C136.467 116.316 134.834 120.828 132.448 124.965C129.451 130.147 123.599 132.745 119.31 136.693C114.397 141.206 111.495 149.009 111.542 155.602C111.589 161.83 116.759 164.451 122.106 165.215L122.083 165.215Z" fill="url(#paint18_linear_0_1)"/>
<path d="M273.118 210.767C280.874 213.27 296.657 198.016 289.276 191.306C286.714 188.967 282.343 191.306 279.581 191.259C274.681 191.177 273.165 189.802 268.382 189.296C261.73 188.603 250.484 193.045 246.523 198.592C242.375 204.409 244.044 218.17 253.527 212.154C257.64 209.533 255.443 204.233 261.401 203.528C266.243 202.964 269.11 209.462 273.118 210.755L273.118 210.767Z" fill="url(#paint19_linear_0_1)"/>
</g>
<path d="M323.36 311.318C300.914 319.761 278.828 305.996 274.029 280.573C269.231 255.149 283.537 227.695 305.983 219.252C328.429 210.809 350.516 224.574 355.314 249.997C360.113 275.42 345.806 302.875 323.36 311.318Z" fill="url(#paint20_linear_0_1)"/>
<path d="M302.764 218.538C324.66 210.262 346.33 224.14 351.167 249.536C356.003 274.933 342.174 302.23 320.278 310.507C298.382 318.784 276.712 304.906 271.875 279.509C267.039 254.113 280.868 226.815 302.764 218.538Z" fill="url(#paint21_linear_0_1)"/>
<path d="M303.546 222.778C323.45 215.255 343.149 227.87 347.546 250.956C351.942 274.043 339.371 298.857 319.467 306.381C299.563 313.905 279.864 301.289 275.467 278.203C271.071 255.117 283.642 230.302 303.546 222.778Z" fill="#00FFBF"/>
<path d="M303.988 225.099C322.787 217.992 341.393 229.908 345.545 251.712C349.697 273.517 337.824 296.954 319.025 304.06C300.226 311.166 281.62 299.251 277.468 277.446C273.316 255.642 285.189 232.205 303.988 225.099Z" fill="url(#paint22_linear_0_1)"/>
<path d="M318.475 301.173C301.051 307.76 283.805 296.716 279.957 276.505C276.108 256.295 287.113 234.572 304.538 227.985C321.962 221.399 339.207 232.443 343.056 252.653C346.905 272.863 335.899 294.587 318.475 301.173Z" fill="url(#paint23_linear_0_1)"/>
<path d="M320.625 229.326C336.518 233.437 345.324 252.535 340.293 271.982C335.263 291.43 318.301 303.863 302.409 299.752C286.516 295.641 277.711 276.543 282.741 257.096C287.771 237.648 304.733 225.215 320.625 229.326Z" fill="url(#paint24_linear_0_1)"/>
<path d="M304.632 290.093L305.448 273.504L291.91 278.434L302.295 266.366L290.709 259.089L304.37 258.343L301.14 242.752L310.59 253.628L317.919 238.725L317.198 255.337L330.879 250.062L320.303 262.465L332.484 269.895L318.228 270.487L321.463 286.462L312.057 275.214L304.632 290.093Z" fill="#00FFBF"/>
<path d="M261.787 263.635C298.491 257.239 317.204 221.399 303.582 183.583C289.961 145.767 249.164 120.295 212.459 126.69C175.755 133.086 157.042 168.926 170.664 206.742C184.285 244.558 225.082 270.03 261.787 263.635Z" fill="url(#paint25_linear_0_1)"/>
<path d="M216.206 123.197C180.369 129.381 162.302 165.045 175.852 202.855C189.401 240.665 229.437 266.303 265.273 260.119C301.11 253.935 319.177 218.271 305.627 180.461C292.077 142.651 252.042 117.013 216.206 123.197Z" fill="url(#paint26_linear_0_1)"/>
<path d="M218.502 129.489C185.925 135.111 169.502 167.53 181.819 201.901C194.136 236.271 230.529 259.577 263.106 253.956C295.682 248.334 312.105 215.915 299.788 181.544C287.471 147.174 251.078 123.868 218.502 129.489Z" fill="#00FFBF"/>
<path d="M219.74 132.944C188.972 138.253 173.46 168.873 185.093 201.335C196.727 233.798 231.1 255.81 261.868 250.5C292.636 245.191 308.147 214.571 296.514 182.109C284.881 149.646 250.508 127.634 219.74 132.944Z" fill="url(#paint27_linear_0_1)"/>
<path d="M260.327 246.203C288.846 241.282 303.223 212.9 292.441 182.811C281.658 152.722 249.798 132.32 221.28 137.241C192.762 142.162 178.384 170.543 189.167 200.632C199.949 230.721 231.809 251.124 260.327 246.203Z" fill="url(#paint28_linear_0_1)"/>
<path d="M200.801 151.72C182.768 169.753 186.038 202.261 208.105 224.329C230.172 246.396 262.68 249.666 280.714 231.632C298.747 213.599 295.477 181.091 273.41 159.024C251.343 136.957 218.835 133.687 200.801 151.72Z" fill="url(#paint29_linear_0_1)"/>
<path d="M270.122 220.456L255.95 198.893L277.959 194.817L254.543 186.851L264.316 167.975L245.44 177.748L237.472 154.329L233.396 176.339L211.835 162.169L225.897 183.838L203.425 187.563L227.361 195.827L216.913 215.378L236.464 204.93L244.728 228.866L248.451 206.392L270.122 220.456Z" fill="#00FFBF"/>
<defs>
<filter id="filter0_d_0_1" x="64.1719" y="116.172" width="37.6561" height="37.6562" filterUnits="userSpaceOnUse" color-interpolation-filters="sRGB">
<feFlood flood-opacity="0" result="BackgroundImageFix"/>
<feColorMatrix in="SourceAlpha" type="matrix" values="0 0 0 0 0 0 0 0 0 0 0 0 0 0 0 0 0 0 127 0" result="hardAlpha"/>
<feOffset/>
<feGaussianBlur stdDeviation="3"/>
<feColorMatrix type="matrix" values="0 0 0 0 1 0 0 0 0 1 0 0 0 0 1 0 0 0 1 0"/>
<feBlend mode="normal" in2="BackgroundImageFix" result="effect1_dropShadow_0_1"/>
<feBlend mode="normal" in="SourceGraphic" in2="effect1_dropShadow_0_1" result="shape"/>
</filter>
<filter id="filter1_d_0_1" x="321.891" y="32.8906" width="26.2191" height="26.2192" filterUnits="userSpaceOnUse" color-interpolation-filters="sRGB">
<feFlood flood-opacity="0" result="BackgroundImageFix"/>
<feColorMatrix in="SourceAlpha" type="matrix" values="0 0 0 0 0 0 0 0 0 0 0 0 0 0 0 0 0 0 127 0" result="hardAlpha"/>
<feOffset/>
<feGaussianBlur stdDeviation="3"/>
<feColorMatrix type="matrix" values="0 0 0 0 1 0 0 0 0 1 0 0 0 0 1 0 0 0 1 0"/>
<feBlend mode="normal" in2="BackgroundImageFix" result="effect1_dropShadow_0_1"/>
<feBlend mode="normal" in="SourceGraphic" in2="effect1_dropShadow_0_1" result="shape"/>
</filter>
<filter id="filter2_d_0_1" x="416.449" y="270.449" width="26.1027" height="26.1025" filterUnits="userSpaceOnUse" color-interpolation-filters="sRGB">
<feFlood flood-opacity="0" result="BackgroundImageFix"/>
<feColorMatrix in="SourceAlpha" type="matrix" values="0 0 0 0 0 0 0 0 0 0 0 0 0 0 0 0 0 0 127 0" result="hardAlpha"/>
<feOffset/>
<feGaussianBlur stdDeviation="3"/>
<feColorMatrix type="matrix" values="0 0 0 0 1 0 0 0 0 1 0 0 0 0 1 0 0 0 1 0"/>
<feBlend mode="normal" in2="BackgroundImageFix" result="effect1_dropShadow_0_1"/>
<feBlend mode="normal" in="SourceGraphic" in2="effect1_dropShadow_0_1" result="shape"/>
</filter>
<linearGradient id="paint0_linear_0_1" x1="268" y1="212" x2="268" y2="495" gradientUnits="userSpaceOnUse">
<stop stop-color="#00FFBF"/>
<stop offset="1" stop-color="#00FFBF" stop-opacity="0"/>
</linearGradient>
<linearGradient id="paint1_linear_0_1" x1="161" y1="212" x2="161" y2="495" gradientUnits="userSpaceOnUse">
<stop stop-color="#00FFBF"/>
<stop offset="1" stop-color="#00FFBF" stop-opacity="0"/>
</linearGradient>
<linearGradient id="paint2_linear_0_1" x1="312" y1="212" x2="312" y2="495" gradientUnits="userSpaceOnUse">
<stop stop-color="#00FFBF"/>
<stop offset="1" stop-color="#00FFBF" stop-opacity="0"/>
</linearGradient>
<linearGradient id="paint3_linear_0_1" x1="409" y1="212" x2="409" y2="495" gradientUnits="userSpaceOnUse">
<stop stop-color="#00FFBF"/>
<stop offset="1" stop-color="#00FFBF" stop-opacity="0"/>
</linearGradient>
<radialGradient id="paint4_radial_0_1" cx="0" cy="0" r="1" gradientUnits="userSpaceOnUse" gradientTransform="translate(83.0085 135) rotate(90) scale(60.4023 18.1207)">
<stop stop-color="white"/>
<stop offset="0.12" stop-color="#C6C6FF" stop-opacity="0.78"/>
<stop offset="0.24" stop-color="#9292FF" stop-opacity="0.57"/>
<stop offset="0.37" stop-color="#6565FF" stop-opacity="0.4"/>
<stop offset="0.5" stop-color="#4040FF" stop-opacity="0.25"/>
<stop offset="0.62" stop-color="#2424FF" stop-opacity="0.14"/>
<stop offset="0.75" stop-color="#1010FF" stop-opacity="0.06"/>
<stop offset="0.88" stop-color="#0404FF" stop-opacity="0.02"/>
<stop offset="1" stop-color="#0000FF" stop-opacity="0"/>
</radialGradient>
<radialGradient id="paint5_radial_0_1" cx="0" cy="0" r="1" gradientUnits="userSpaceOnUse" gradientTransform="translate(83 135.006) scale(60.4023 18.1207)">
<stop stop-color="white"/>
<stop offset="0.12" stop-color="#C6C6FF" stop-opacity="0.78"/>
<stop offset="0.24" stop-color="#9292FF" stop-opacity="0.57"/>
<stop offset="0.37" stop-color="#6565FF" stop-opacity="0.4"/>
<stop offset="0.5" stop-color="#4040FF" stop-opacity="0.25"/>
<stop offset="0.62" stop-color="#2424FF" stop-opacity="0.14"/>
<stop offset="0.75" stop-color="#1010FF" stop-opacity="0.06"/>
<stop offset="0.88" stop-color="#0404FF" stop-opacity="0.02"/>
<stop offset="1" stop-color="#0000FF" stop-opacity="0"/>
</radialGradient>
<radialGradient id="paint6_radial_0_1" cx="0" cy="0" r="1" gradientUnits="userSpaceOnUse" gradientTransform="translate(83 135) rotate(180) scale(12.828)">
<stop stop-color="white"/>
<stop offset="0.12" stop-color="#C6C6FF" stop-opacity="0.78"/>
<stop offset="0.24" stop-color="#9292FF" stop-opacity="0.57"/>
<stop offset="0.37" stop-color="#6565FF" stop-opacity="0.4"/>
<stop offset="0.5" stop-color="#4040FF" stop-opacity="0.25"/>
<stop offset="0.62" stop-color="#2424FF" stop-opacity="0.14"/>
<stop offset="0.75" stop-color="#1010FF" stop-opacity="0.06"/>
<stop offset="0.88" stop-color="#0404FF" stop-opacity="0.02"/>
<stop offset="1" stop-color="#0000FF" stop-opacity="0"/>
</radialGradient>
<radialGradient id="paint7_radial_0_1" cx="0" cy="0" r="1" gradientUnits="userSpaceOnUse" gradientTransform="translate(335.005 46) rotate(90) scale(33.4759 10.0428)">
<stop stop-color="white"/>
<stop offset="0.12" stop-color="#C6C6FF" stop-opacity="0.78"/>
<stop offset="0.24" stop-color="#9292FF" stop-opacity="0.57"/>
<stop offset="0.37" stop-color="#6565FF" stop-opacity="0.4"/>
<stop offset="0.5" stop-color="#4040FF" stop-opacity="0.25"/>
<stop offset="0.62" stop-color="#2424FF" stop-opacity="0.14"/>
<stop offset="0.75" stop-color="#1010FF" stop-opacity="0.06"/>
<stop offset="0.88" stop-color="#0404FF" stop-opacity="0.02"/>
<stop offset="1" stop-color="#0000FF" stop-opacity="0"/>
</radialGradient>
<radialGradient id="paint8_radial_0_1" cx="0" cy="0" r="1" gradientUnits="userSpaceOnUse" gradientTransform="translate(335 46.0037) scale(33.4759 10.0428)">
<stop stop-color="white"/>
<stop offset="0.12" stop-color="#C6C6FF" stop-opacity="0.78"/>
<stop offset="0.24" stop-color="#9292FF" stop-opacity="0.57"/>
<stop offset="0.37" stop-color="#6565FF" stop-opacity="0.4"/>
<stop offset="0.5" stop-color="#4040FF" stop-opacity="0.25"/>
<stop offset="0.62" stop-color="#2424FF" stop-opacity="0.14"/>
<stop offset="0.75" stop-color="#1010FF" stop-opacity="0.06"/>
<stop offset="0.88" stop-color="#0404FF" stop-opacity="0.02"/>
<stop offset="1" stop-color="#0000FF" stop-opacity="0"/>
</radialGradient>
<radialGradient id="paint9_radial_0_1" cx="0" cy="0" r="1" gradientUnits="userSpaceOnUse" gradientTransform="translate(335 46.0001) rotate(180) scale(7.10952)">
<stop stop-color="white"/>
<stop offset="0.12" stop-color="#C6C6FF" stop-opacity="0.78"/>
<stop offset="0.24" stop-color="#9292FF" stop-opacity="0.57"/>
<stop offset="0.37" stop-color="#6565FF" stop-opacity="0.4"/>
<stop offset="0.5" stop-color="#4040FF" stop-opacity="0.25"/>
<stop offset="0.62" stop-color="#2424FF" stop-opacity="0.14"/>
<stop offset="0.75" stop-color="#1010FF" stop-opacity="0.06"/>
<stop offset="0.88" stop-color="#0404FF" stop-opacity="0.02"/>
<stop offset="1" stop-color="#0000FF" stop-opacity="0"/>
</radialGradient>
<radialGradient id="paint10_radial_0_1" cx="0" cy="0" r="1" gradientUnits="userSpaceOnUse" gradientTransform="translate(429.503 283.504) rotate(150) scale(37.4785 11.2436)">
<stop stop-color="white"/>
<stop offset="0.12" stop-color="#C6C6FF" stop-opacity="0.78"/>
<stop offset="0.24" stop-color="#9292FF" stop-opacity="0.57"/>
<stop offset="0.37" stop-color="#6565FF" stop-opacity="0.4"/>
<stop offset="0.5" stop-color="#4040FF" stop-opacity="0.25"/>
<stop offset="0.62" stop-color="#2424FF" stop-opacity="0.14"/>
<stop offset="0.75" stop-color="#1010FF" stop-opacity="0.06"/>
<stop offset="0.88" stop-color="#0404FF" stop-opacity="0.02"/>
<stop offset="1" stop-color="#0000FF" stop-opacity="0"/>
</radialGradient>
<radialGradient id="paint11_radial_0_1" cx="0" cy="0" r="1" gradientUnits="userSpaceOnUse" gradientTransform="translate(429.497 283.502) rotate(60) scale(37.4785 11.2436)">
<stop stop-color="white"/>
<stop offset="0.12" stop-color="#C6C6FF" stop-opacity="0.78"/>
<stop offset="0.24" stop-color="#9292FF" stop-opacity="0.57"/>
<stop offset="0.37" stop-color="#6565FF" stop-opacity="0.4"/>
<stop offset="0.5" stop-color="#4040FF" stop-opacity="0.25"/>
<stop offset="0.62" stop-color="#2424FF" stop-opacity="0.14"/>
<stop offset="0.75" stop-color="#1010FF" stop-opacity="0.06"/>
<stop offset="0.88" stop-color="#0404FF" stop-opacity="0.02"/>
<stop offset="1" stop-color="#0000FF" stop-opacity="0"/>
</radialGradient>
<radialGradient id="paint12_radial_0_1" cx="0" cy="0" r="1" gradientUnits="userSpaceOnUse" gradientTransform="translate(429.5 283.5) rotate(-120) scale(7.95957)">
<stop stop-color="white"/>
<stop offset="0.12" stop-color="#C6C6FF" stop-opacity="0.78"/>
<stop offset="0.24" stop-color="#9292FF" stop-opacity="0.57"/>
<stop offset="0.37" stop-color="#6565FF" stop-opacity="0.4"/>
<stop offset="0.5" stop-color="#4040FF" stop-opacity="0.25"/>
<stop offset="0.62" stop-color="#2424FF" stop-opacity="0.14"/>
<stop offset="0.75" stop-color="#1010FF" stop-opacity="0.06"/>
<stop offset="0.88" stop-color="#0404FF" stop-opacity="0.02"/>
<stop offset="1" stop-color="#0000FF" stop-opacity="0"/>
</radialGradient>
<linearGradient id="paint13_linear_0_1" x1="489.081" y1="286.096" x2="91.8455" y2="286.096" gradientUnits="userSpaceOnUse">
<stop stop-color="#19002A"/>
<stop offset="0.99" stop-color="#5B008B" stop-opacity="0"/>
</linearGradient>
<linearGradient id="paint14_linear_0_1" x1="398.98" y1="156.154" x2="215.498" y2="156.154" gradientUnits="userSpaceOnUse">
<stop stop-color="#19002A"/>
<stop offset="0.99" stop-color="#5B008B" stop-opacity="0"/>
</linearGradient>
<linearGradient id="paint15_linear_0_1" x1="304.201" y1="76.653" x2="216.462" y2="76.653" gradientUnits="userSpaceOnUse">
<stop stop-color="#19002A"/>
<stop offset="0.99" stop-color="#5B008B" stop-opacity="0"/>
</linearGradient>
<linearGradient id="paint16_linear_0_1" x1="226.851" y1="256.56" x2="40.0199" y2="256.56" gradientUnits="userSpaceOnUse">
<stop stop-color="#19002A"/>
<stop offset="0.99" stop-color="#5B008B" stop-opacity="0"/>
</linearGradient>
<linearGradient id="paint17_linear_0_1" x1="489.869" y1="340.47" x2="222.738" y2="340.47" gradientUnits="userSpaceOnUse">
<stop stop-color="#19002A"/>
<stop offset="0.99" stop-color="#5B008B" stop-opacity="0"/>
</linearGradient>
<linearGradient id="paint18_linear_0_1" x1="216.638" y1="127.28" x2="111.518" y2="127.28" gradientUnits="userSpaceOnUse">
<stop stop-color="#19002A"/>
<stop offset="0.99" stop-color="#5B008B" stop-opacity="0"/>
</linearGradient>
<linearGradient id="paint19_linear_0_1" x1="291.192" y1="201.436" x2="244.384" y2="201.436" gradientUnits="userSpaceOnUse">
<stop stop-color="#19002A"/>
<stop offset="0.99" stop-color="#5B008B" stop-opacity="0"/>
</linearGradient>
<linearGradient id="paint20_linear_0_1" x1="323.946" y1="263.641" x2="329.194" y2="310.667" gradientUnits="userSpaceOnUse">
<stop stop-color="#180026"/>
<stop offset="1" stop-color="#20153F"/>
</linearGradient>
<linearGradient id="paint21_linear_0_1" x1="302.463" y1="266.103" x2="297.423" y2="219.111" gradientUnits="userSpaceOnUse">
<stop stop-color="#180026"/>
<stop offset="1" stop-color="#20153F"/>
</linearGradient>
<linearGradient id="paint22_linear_0_1" x1="303.73" y1="265.936" x2="299.403" y2="225.59" gradientUnits="userSpaceOnUse">
<stop stop-color="#180026"/>
<stop offset="1" stop-color="#20153F"/>
</linearGradient>
<linearGradient id="paint23_linear_0_1" x1="318.714" y1="263.322" x2="322.725" y2="300.717" gradientUnits="userSpaceOnUse">
<stop stop-color="#180026"/>
<stop offset="1" stop-color="#192F51"/>
</linearGradient>
<linearGradient id="paint24_linear_0_1" x1="305.521" y1="261.583" x2="323.336" y2="230.9" gradientUnits="userSpaceOnUse">
<stop stop-color="#180026"/>
<stop offset="1" stop-color="#262585"/>
</linearGradient>
<linearGradient id="paint25_linear_0_1" x1="223.411" y1="200.274" x2="253.464" y2="267.363" gradientUnits="userSpaceOnUse">
<stop stop-color="#180026"/>
<stop offset="1" stop-color="#20153F"/>
</linearGradient>
<linearGradient id="paint26_linear_0_1" x1="254.11" y1="186.631" x2="223.807" y2="119.753" gradientUnits="userSpaceOnUse">
<stop stop-color="#180026"/>
<stop offset="1" stop-color="#20153F"/>
</linearGradient>
<linearGradient id="paint27_linear_0_1" x1="252.283" y1="187.406" x2="226.266" y2="129.987" gradientUnits="userSpaceOnUse">
<stop stop-color="#180026"/>
<stop offset="1" stop-color="#20153F"/>
</linearGradient>
<linearGradient id="paint28_linear_0_1" x1="230.163" y1="195.722" x2="254.279" y2="248.943" gradientUnits="userSpaceOnUse">
<stop stop-color="#180026"/>
<stop offset="1" stop-color="#192F51"/>
</linearGradient>
<linearGradient id="paint29_linear_0_1" x1="246.453" y1="182.991" x2="198.413" y2="155.965" gradientUnits="userSpaceOnUse">
<stop stop-color="#180026"/>
<stop offset="1" stop-color="#262585"/>
</linearGradient>
<clipPath id="clip0_0_1">
<rect width="166" height="166" fill="white" transform="translate(0 52)"/>
</clipPath>
<clipPath id="clip1_0_1">
<rect width="92" height="92" fill="white" transform="translate(289)"/>
</clipPath>
<clipPath id="clip2_0_1">
<rect width="103" height="103" fill="white" transform="translate(448.35 213.149) rotate(60)"/>
</clipPath>
</defs>
</svg>
