<svg width="366" height="280" viewBox="0 0 366 280" fill="none" xmlns="http://www.w3.org/2000/svg">
<path d="M312.324 123.992C313.138 123.992 313.796 123.333 313.796 122.518C313.796 121.702 313.138 121.043 312.324 121.043C311.509 121.043 310.851 121.702 310.851 122.518C310.851 123.333 311.509 123.992 312.324 123.992Z" fill="white"/>
<path d="M319.75 80.709C320.564 80.709 321.222 80.0504 321.222 79.2349C321.222 78.4194 320.564 77.7607 319.75 77.7607C318.935 77.7607 318.277 78.4194 318.277 79.2349C318.277 80.0504 318.935 80.709 319.75 80.709Z" fill="white"/>
<path d="M156.407 26.041C157.222 26.041 157.88 25.3824 157.88 24.5669C157.88 23.7514 157.222 23.0928 156.407 23.0928C155.593 23.0928 154.935 23.7514 154.935 24.5669C154.935 25.3824 155.593 26.041 156.407 26.041Z" fill="white"/>
<path d="M114.577 15.6904C115.392 15.6904 116.05 15.0318 116.05 14.2163C116.05 13.4008 115.392 12.7422 114.577 12.7422C113.763 12.7422 113.104 13.4008 113.104 14.2163C113.104 15.0318 113.763 15.6904 114.577 15.6904Z" fill="white"/>
<path d="M83.5883 83.6572C84.403 83.6572 85.061 82.9986 85.061 82.1831C85.061 81.3676 84.403 80.709 83.5883 80.709C82.7736 80.709 82.1156 81.3676 82.1156 82.1831C82.1156 82.9986 82.7736 83.6572 83.5883 83.6572Z" fill="white"/>
<path d="M31.4177 177.217C32.2324 177.217 32.8904 176.559 32.8904 175.743C32.8904 174.928 32.2324 174.269 31.4177 174.269C30.6031 174.269 29.9451 174.928 29.9451 175.743C29.9451 176.559 30.6031 177.217 31.4177 177.217Z" fill="white"/>
<path d="M1.90151 159.998C2.71619 159.998 3.37419 159.339 3.37419 158.524C3.37419 157.708 2.71619 157.05 1.90151 157.05C1.08684 157.05 0.428833 157.708 0.428833 158.524C0.428833 159.339 1.08684 159.998 1.90151 159.998Z" fill="white"/>
<path d="M194.572 247.787C195.387 247.787 196.045 247.128 196.045 246.313C196.045 245.498 195.387 244.839 194.572 244.839C193.757 244.839 193.099 245.498 193.099 246.313C193.099 247.128 193.757 247.787 194.572 247.787Z" fill="white"/>
<path d="M92.7689 235.524C93.5836 235.524 94.2416 234.865 94.2416 234.05C94.2416 233.234 93.5836 232.576 92.7689 232.576C91.9543 232.576 91.2963 233.234 91.2963 234.05C91.2963 234.865 91.9543 235.524 92.7689 235.524Z" fill="white"/>
<path d="M262.002 174.144C262.817 174.144 263.475 173.485 263.475 172.669C263.475 171.854 262.817 171.195 262.002 171.195C261.187 171.195 260.529 171.854 260.529 172.669C260.529 173.485 261.187 174.144 262.002 174.144Z" fill="white"/>
<path d="M288.761 117.656C289.575 117.656 290.233 116.998 290.233 116.182C290.233 115.367 289.575 114.708 288.761 114.708C287.946 114.708 287.288 115.367 287.288 116.182C287.288 116.998 287.946 117.656 288.761 117.656Z" fill="white"/>
<path d="M217.915 116.652C218.73 116.652 219.388 115.994 219.388 115.178C219.388 114.363 218.73 113.704 217.915 113.704C217.101 113.704 216.443 114.363 216.443 115.178C216.443 115.994 217.101 116.652 217.915 116.652Z" fill="white"/>
<path d="M197.235 99.4024C198.05 99.4024 198.708 98.7437 198.708 97.9282C198.708 97.1128 198.05 96.4541 197.235 96.4541C196.421 96.4541 195.763 97.1128 195.763 97.9282C195.763 98.7437 196.421 99.4024 197.235 99.4024Z" fill="white"/>
<path d="M44.2332 239.79C45.0478 239.79 45.7059 239.131 45.7059 238.315C45.7059 237.5 45.0478 236.841 44.2332 236.841C43.4185 236.841 42.7605 237.5 42.7605 238.315C42.7605 239.131 43.4185 239.79 44.2332 239.79Z" fill="white"/>
<path d="M180.096 214.917C180.91 214.917 181.568 214.259 181.568 213.443C181.568 212.628 180.91 211.969 180.096 211.969C179.281 211.969 178.623 212.628 178.623 213.443C178.623 214.259 179.281 214.917 180.096 214.917Z" fill="white"/>
<path d="M38.3112 72.3345C39.1259 72.3345 39.7839 71.6758 39.7839 70.8604C39.7839 70.0449 39.1259 69.3862 38.3112 69.3862C37.4965 69.3862 36.8385 70.0449 36.8385 70.8604C36.8385 71.6758 37.4965 72.3345 38.3112 72.3345Z" fill="white"/>
<path d="M134.756 99.9043C135.571 99.9043 136.229 99.2457 136.229 98.4302C136.229 97.6147 135.571 96.9561 134.756 96.9561" fill="white"/>
<path d="M197.737 44.7661C198.551 44.7661 199.209 44.1075 199.209 43.292C199.209 42.4765 198.551 41.8179 197.737 41.8179C196.922 41.8179 196.264 42.4765 196.264 43.292C196.264 44.1075 196.922 44.7661 197.737 44.7661Z" fill="white"/>
<path d="M203.408 156.329C205.194 156.329 206.635 154.886 206.635 153.098C206.635 151.31 205.194 149.868 203.408 149.868C201.622 149.868 200.181 151.31 200.181 153.098C200.181 154.886 201.622 156.329 203.408 156.329Z" fill="white"/>
<path d="M145.065 253.339C146.851 253.339 148.292 251.897 148.292 250.109C148.292 248.321 146.851 246.878 145.065 246.878C143.279 246.878 141.837 248.321 141.837 250.109C141.837 251.897 143.279 253.339 145.065 253.339Z" fill="white"/>
<path d="M41.7579 39.1193C43.5439 39.1193 44.9852 37.6452 44.9852 35.8887C44.9852 34.1323 43.5439 32.6582 41.7579 32.6582C39.9719 32.6582 38.5305 34.101 38.5305 35.8887C38.5305 37.6765 39.9719 39.1193 41.7579 39.1193Z" fill="white"/>
<path d="M80.1415 133.182C81.9276 133.182 83.3689 131.708 83.3689 129.951C83.3689 128.195 81.9276 126.721 80.1415 126.721C78.3555 126.721 76.9142 128.163 76.9142 129.951C76.9142 131.739 78.3555 133.182 80.1415 133.182Z" fill="white"/>
<path d="M116.05 190.579C117.836 190.579 119.277 189.136 119.277 187.349C119.277 185.561 117.836 184.118 116.05 184.118C114.264 184.118 112.823 185.561 112.823 187.349C112.823 189.136 114.264 190.579 116.05 190.579Z" fill="white"/>
<path d="M11.7402 212.472C13.5262 212.472 14.9675 210.998 14.9675 209.241C14.9675 207.485 13.5262 206.011 11.7402 206.011C9.95416 206.011 8.51282 207.454 8.51282 209.241C8.51282 211.029 9.95416 212.472 11.7402 212.472Z" fill="white"/>
<path d="M40.7552 224.798C42.5412 224.798 43.9826 223.355 43.9826 221.567C43.9826 219.78 42.5412 218.337 40.7552 218.337C38.9692 218.337 37.5278 219.78 37.5278 221.567C37.5278 223.355 38.9692 224.798 40.7552 224.798Z" fill="white"/>
<path d="M267.579 88.5816C268.77 88.5816 269.71 87.6093 269.71 86.4175C269.71 85.2256 268.77 84.2847 267.579 84.2847C266.389 84.2847 265.417 85.257 265.417 86.4175C265.417 87.5779 266.389 88.5816 267.579 88.5816Z" fill="white"/>
<path d="M150.016 53.2964C151.206 53.2964 152.146 52.3241 152.146 51.1323C152.146 49.9404 151.206 48.9995 150.016 48.9995C148.825 48.9995 147.854 49.9718 147.854 51.1323C147.854 52.2928 148.825 53.2964 150.016 53.2964Z" fill="white"/>
<path d="M100.978 37.2696C102.169 37.2696 103.14 36.2973 103.14 35.1054C103.14 33.9136 102.169 32.9727 100.978 32.9727C99.7878 32.9727 98.8164 33.9136 98.8164 35.1054C98.8164 36.2973 99.7878 37.2696 100.978 37.2696Z" fill="white"/>
<path d="M339.897 25.0685C341.088 25.0685 342.028 24.0962 342.028 22.9044C342.028 21.7125 341.088 20.7402 339.897 20.7402C338.707 20.7402 337.735 21.6812 337.735 22.9044C337.735 24.1276 338.707 25.0685 339.897 25.0685Z" fill="white"/>
<path d="M147.759 163.48C148.95 163.48 149.921 162.507 149.921 161.316C149.921 160.124 148.95 159.151 147.759 159.151C146.569 159.151 145.597 160.124 145.597 161.316C145.597 162.507 146.569 163.48 147.759 163.48Z" fill="white"/>
<path d="M336.607 177.5C337.798 177.5 338.769 176.528 338.769 175.336C338.769 174.144 337.798 173.172 336.607 173.172C335.417 173.172 334.445 174.144 334.445 175.336C334.445 176.528 335.417 177.5 336.607 177.5Z" fill="white"/>
<path d="M233.645 95.8263C234.836 95.8263 235.807 94.854 235.807 93.6622C235.807 92.4703 234.836 91.498 233.645 91.498C232.454 91.498 231.483 92.4703 231.483 93.6622C231.483 94.854 232.454 95.8263 233.645 95.8263Z" fill="white"/>
<path d="M315.802 35.0734C316.992 35.0734 317.932 34.1011 317.932 32.9093C317.932 31.7174 316.961 30.7451 315.802 30.7451C314.642 30.7451 313.64 31.7174 313.64 32.9093C313.64 34.1011 314.611 35.0734 315.802 35.0734Z" fill="white"/>
<path d="M317.807 148.801C318.998 148.801 319.938 147.829 319.938 146.637C319.938 145.445 318.998 144.504 317.807 144.504C316.616 144.504 315.645 145.477 315.645 146.637C315.645 147.798 316.616 148.801 317.807 148.801Z" fill="white"/>
<path d="M267.329 23.5632C267.329 22.9359 266.827 22.4341 266.232 22.4341C265.637 22.4341 265.135 22.9359 265.135 23.5632" fill="white"/>
<path d="M243.985 211.843C244.612 211.843 245.082 211.342 245.082 210.746C245.082 210.15 244.58 209.648 243.985 209.648C243.39 209.648 242.888 210.15 242.888 210.746C242.888 211.342 243.39 211.843 243.985 211.843Z" fill="white"/>
<path d="M15.8762 118.534C16.5029 118.534 16.9729 118.033 16.9729 117.437C16.9729 116.841 16.4716 116.308 15.8762 116.308C15.2809 116.308 14.7795 116.809 14.7795 117.437C14.7795 118.064 15.2809 118.534 15.8762 118.534Z" fill="white"/>
<path d="M54.1346 23.8454C52.3486 23.8454 50.9072 22.4026 50.9072 20.6148C50.9072 18.827 52.3486 17.3843 54.1346 17.3843C55.9206 17.3843 57.3619 18.827 57.3619 20.6148C57.3619 22.4026 55.9206 23.8454 54.1346 23.8454Z" fill="white"/>
<g clip-path="url(#clip0_0_1)">
<g style="mix-blend-mode:screen">
<path style="mix-blend-mode:screen" d="M299.437 198.218C296.232 200.068 293.172 201.966 290.308 203.867C274.287 214.458 264.11 225.22 266.626 229.578C269.143 233.936 283.7 230.469 300.99 221.803C303.993 220.303 307.073 218.642 310.19 216.843C313.308 215.043 316.266 213.217 319.048 211.377C335.226 200.721 345.535 189.87 343.001 185.483C340.468 181.095 325.933 184.601 308.638 193.258C305.635 194.757 302.555 196.418 299.437 198.218Z" fill="url(#paint0_radial_0_1)"/>
<path style="mix-blend-mode:screen" d="M295.502 212.907C307.676 233.994 321.722 248.685 326.862 245.718C332.001 242.75 326.301 223.241 314.126 202.154C301.952 181.067 287.906 166.375 282.766 169.343C277.626 172.31 283.327 191.82 295.502 212.907Z" fill="url(#paint1_radial_0_1)"/>
</g>
<g style="mix-blend-mode:screen" filter="url(#filter0_d_0_1)">
<path d="M302.958 203.638L301.641 201.493L302.659 203.798C303.559 205.831 302.819 208.226 300.922 209.387L298.777 210.703L301.081 209.685C303.115 208.785 305.51 209.526 306.67 211.423L307.987 213.568L306.969 211.263C306.069 209.229 306.809 206.834 308.706 205.674L310.851 204.357L308.547 205.375C306.513 206.276 304.118 205.535 302.958 203.638Z" fill="url(#paint2_radial_0_1)" style="mix-blend-mode:screen"/>
</g>
</g>
<g clip-path="url(#clip1_0_1)">
<g style="mix-blend-mode:screen">
<path style="mix-blend-mode:screen" d="M59.6341 54.1659C56.8455 55.7759 54.1825 57.4267 51.6912 59.0804C37.7522 68.2957 28.8977 77.6588 31.0869 81.4506C33.2761 85.2424 45.9422 82.2258 60.9845 74.6861C63.5979 73.3813 66.2776 71.9361 68.9897 70.3703C71.7018 68.8045 74.2762 67.2162 76.6959 65.6151C90.7722 56.3432 99.7409 46.9029 97.5369 43.0856C95.333 39.2683 82.6865 42.3189 67.6393 49.8501C65.0259 51.1549 62.3462 52.6001 59.6341 54.1659Z" fill="url(#paint3_radial_0_1)"/>
<path style="mix-blend-mode:screen" d="M56.2097 66.9459C66.8023 85.2928 79.0225 98.075 83.4944 95.4931C87.9664 92.9113 83.0068 75.9372 72.4142 57.5903C61.8216 39.2434 49.6014 26.4612 45.1295 29.0431C40.6575 31.6249 45.6172 48.599 56.2097 66.9459Z" fill="url(#paint4_radial_0_1)"/>
</g>
<g style="mix-blend-mode:screen" filter="url(#filter1_d_0_1)">
<path d="M62.6969 58.8814L61.5513 57.0149L62.4369 59.0201C63.2204 60.7895 62.5758 62.8734 60.9255 63.8829L59.0591 65.0285L61.0643 64.1429C62.8337 63.3593 64.9176 64.0039 65.927 65.6542L67.0727 67.5207L66.187 65.5155C65.4035 63.7461 66.0481 61.6622 67.6984 60.6527L69.5648 59.5071L67.5596 60.3927C65.7902 61.1763 63.7064 60.5317 62.6969 58.8814Z" fill="url(#paint5_radial_0_1)" style="mix-blend-mode:screen"/>
</g>
</g>
<g style="mix-blend-mode:plus-darker" opacity="0.2">
<path d="M236.448 123.886C233.454 128.272 231.387 132.082 225.376 131.738C220.646 131.468 216.101 128.469 211.997 126.377C208.023 124.353 203.845 122.5 199.3 122.531C192.399 122.966 187.075 126.88 182.309 131.591C179.873 133.995 177.622 136.572 175.211 139.001C171.832 142.417 167.808 143.718 163.41 145.319C155.987 148.024 149.534 154.225 144.394 160.065C139.198 165.966 135.604 173.517 128.789 177.817C121.361 182.51 112.362 177.467 104.4 180.148C99.5969 181.761 96.0146 186.049 94.2787 190.656C90.7884 199.936 95.2356 211.082 101.744 217.866C104.983 221.246 109.35 223.798 114.03 224.411C119.637 225.147 123.575 222.823 128.366 220.406C131.292 218.934 135.334 219.48 138.524 219.455C142.094 219.424 145.633 219.265 149.166 218.756C155.674 217.823 161.6 214.756 164.734 208.788C167.949 202.666 167.243 195.06 166.728 188.429C166.243 182.24 164.759 174.026 169.31 168.947C173.365 164.426 180.462 165.254 185.848 164.242C191.019 163.273 194.399 159.243 197.349 155.238C201.042 150.22 205.409 146.036 212.188 147.619C218.653 149.134 223.474 154.747 229.755 156.888C234.945 158.654 241.33 157.556 246.514 156.348C251.703 155.139 257.402 152.87 260.469 148.275C262.37 145.429 261.788 141.718 262.395 138.522C263.229 134.136 268.517 133.063 272.142 132.112C278.233 130.511 284.484 128.15 289.974 125.033C295.01 122.175 298.886 117.832 299.978 112.042C300.96 106.864 300.205 99.89 298.107 95.0379C294.237 86.076 282.729 94.5963 277.981 97.8964C273.246 101.184 268.829 104.914 264.217 108.373C261.769 110.207 259.266 112.011 256.567 113.452C253.666 115.004 250.317 115.716 247.182 116.648C242.582 118.022 239.177 119.887 236.448 123.88L236.448 123.886Z" fill="url(#paint6_linear_0_1)"/>
<path d="M195.791 77.935C192.651 78.0883 189.596 76.2604 186.897 74.8986C182.161 72.5124 177.561 70.9483 172.2 71.7396C167.752 72.402 162.164 74.733 159.539 78.5729C154.153 86.4429 161.023 98.6742 167.568 103.673C174.328 108.838 181.732 105.753 188.154 101.704C194.221 97.8768 202.189 90.6754 209.869 94.1657C216.064 97.3309 219.849 103.569 226.278 106.428C232.54 109.213 240.055 109.163 245.956 105.575C249.231 103.581 254.868 98.2326 253.01 93.8467C251.673 90.6938 245.851 91.571 243.324 91.847C238.705 92.3439 233.534 93.6749 229.326 91.0373C226.995 89.5713 225.413 86.8416 223.879 84.6333C221.953 81.8669 220.058 79.0391 217.966 76.3953C214.359 71.8438 208.01 71.1875 203.232 74.1993C200.674 75.8126 198.987 77.7755 195.797 77.9288L195.791 77.935Z" fill="url(#paint7_linear_0_1)"/>
<path d="M164.44 54.945C168.022 54.7058 170.304 55.1045 173.586 56.9447C176.377 58.5089 178.904 60.527 182.186 60.7847C185.234 61.0239 188.412 60.2326 191.252 59.2021C196.546 57.276 201.619 53.5158 203.471 48.0197C203.729 47.2529 203.802 46.4248 203.894 45.6274C204.109 43.6645 201.042 43.6829 200.827 45.6274C200.766 46.1979 200.637 46.7499 200.471 47.2775L199.815 47.8479C200.287 45.5845 199.876 43.4007 198.926 40.9226C198.165 38.9351 195.969 36.3527 193.693 36.1503C191.78 35.9785 190.24 37.1869 188.719 38.1684C186.621 39.524 184.682 39.9779 182.284 39.4933C176.021 38.2359 165.133 33.5249 160.017 39.6099C157.104 43.0695 157.827 49.4857 160.091 53.0435C161.06 54.5709 162.729 55.0616 164.44 54.945Z" fill="url(#paint8_linear_0_1)"/>
<path d="M66.0866 179.367C66.7674 184.686 72.1163 186.998 76.8089 185.471C82.4277 183.649 86.9424 178.466 91.0276 174.497C93.7757 171.822 97.0329 168.136 100.775 167.007C103.265 166.259 105.111 165.811 106.804 164.253C107.172 164.394 107.608 164.382 108.05 164.106C115.159 159.683 123.992 157.021 129.924 150.924C132.328 148.452 133.954 145.268 135.592 142.268C137.512 138.76 139.278 136.257 142.928 134.472C148.584 131.712 155.233 130.626 159.637 125.768C161.563 123.646 165.771 117.843 162.005 115.407C158.864 113.371 153.834 114.745 150.405 115.095C147.725 115.365 145.259 115.389 142.726 114.273C140.143 113.132 139.002 110.635 137.812 108.261C135.04 102.735 130.23 99.5203 124.066 98.9068C117.999 98.3057 112.589 102.041 109.405 106.912C106.265 111.715 106.246 117.407 106.228 122.928C106.209 128.59 105.32 132.982 101.167 137.104C98.3824 139.87 95.0823 141.361 91.5368 142.888C88.1385 144.354 85.5929 146.495 83.3294 149.384C81.2254 152.077 79.5631 155.089 77.8701 158.051C76.2385 160.91 74.2265 163.18 72.1348 165.694C69.0371 169.418 65.418 174.233 66.0743 179.367L66.0866 179.367Z" fill="url(#paint9_linear_0_1)"/>
<path d="M292.998 147.587C292.593 147.262 292.139 147.176 291.722 147.25C291.881 146.63 292.029 146.017 292.164 145.398C292.587 143.471 289.63 142.649 289.207 144.582C287.796 151.035 285.017 157.089 279.417 160.904C273.436 164.984 266.37 164.72 259.469 165.027C255.586 165.198 251.734 165.799 247.998 166.873C243.827 168.075 240.251 170.602 236.123 171.866C229.559 173.872 222.524 170.946 215.917 173.258C212.666 174.399 209.936 176.381 206.391 176.595C202.232 176.847 197.908 175.27 193.785 174.816C187.805 174.16 178.941 176.773 178.665 183.956C178.561 186.637 180.223 189.366 181.352 191.685C182.971 195.004 183.738 198.402 182.474 201.978C180.475 207.64 173.5 210.971 168.857 214.099C165.532 216.338 159.018 220.883 162.263 225.576C165.25 229.894 172.973 229.072 177.291 228.128C191.522 225.005 200.404 211.302 207.888 200.015C212.157 193.574 216.843 188.042 223.701 184.263C229.989 180.803 237.251 179.656 244.349 179.748C251.924 179.84 259.279 181.907 266.867 182.036C274.258 182.165 281.895 180.797 288.195 176.773C293.17 173.602 297.788 167.566 299.972 162.125C302.806 155.071 298.028 151.63 293.004 147.587L292.998 147.587Z" fill="url(#paint10_linear_0_1)"/>
<path d="M108.841 94.706C109 94.7551 109.184 94.7858 109.387 94.7735C109.638 94.798 109.853 94.7735 110.043 94.6999C112.527 94.3932 114.398 93.2093 116.239 91.4305C117.373 90.3263 118.386 89.1424 119.692 88.2223C121.857 86.7011 124.237 87.1857 126.593 87.7929C131.856 89.1363 138.689 90.5778 143.541 87.3022C148.743 83.7936 145.449 76.7271 150.111 73.2123C155.061 69.4767 160.539 65.3116 157.159 58.5458C154.257 52.7491 147.301 55.2947 143.112 57.779C140.493 59.3309 138.254 61.1221 136.187 63.361C134.757 64.9068 133.334 66.4096 131.095 66.5568C130.016 66.6305 128.697 64.6062 127.918 63.9928C123.82 60.754 119.845 63.085 117.588 67.023C116.349 69.1822 115.496 71.5377 114.251 73.6969C112.687 76.402 109.632 77.7576 107.393 79.8187C104.829 82.1741 103.314 86.2472 103.339 89.6884C103.363 92.9394 106.062 94.3073 108.853 94.706L108.841 94.706Z" fill="url(#paint11_linear_0_1)"/>
<path d="M187.676 118.482C191.724 119.789 199.962 111.827 196.11 108.324C194.773 107.103 192.491 108.324 191.05 108.3C188.492 108.257 187.7 107.539 185.204 107.275C181.732 106.913 175.862 109.232 173.795 112.127C171.629 115.164 172.5 122.347 177.45 119.206C179.597 117.838 178.45 115.072 181.56 114.704C184.087 114.409 185.584 117.801 187.676 118.476L187.676 118.482Z" fill="url(#paint12_linear_0_1)"/>
</g>
<ellipse opacity="0.5" cx="176.991" cy="140" rx="139.5" ry="140" fill="url(#paint13_linear_0_1)"/>
<path d="M232.137 143.543L192.102 133.424L212.196 97.7079L177.039 118.862L166.84 79.6328L156.64 118.862L121.483 97.7079L141.57 133.424L101.543 143.543L141.57 153.962L120.566 189.832L156.64 168.371L166.84 209.454L177.039 168.371L213.106 189.832L192.102 153.962L232.137 143.543Z" fill="#00FFBF"/>
<path d="M177.004 121.223L192.045 78.9409" stroke="#00FFBF" stroke-width="7" stroke-miterlimit="10"/>
<path d="M196.494 79.712C203.787 79.712 209.7 73.7623 209.7 66.4229C209.7 59.0835 203.787 53.1338 196.494 53.1338C189.201 53.1338 183.289 59.0835 183.289 66.4229C183.289 73.7623 189.201 79.712 196.494 79.712Z" stroke="#00FFBF" stroke-width="7" stroke-miterlimit="10"/>
<path d="M191.552 153.708L237.037 170.094" stroke="#00FFBF" stroke-width="7" stroke-miterlimit="10"/>
<path d="M255.178 195.668C265.628 195.668 274.098 187.143 274.098 176.628C274.098 166.112 265.628 157.588 255.178 157.588C244.729 157.588 236.259 166.112 236.259 176.628C236.259 187.143 244.729 195.668 255.178 195.668Z" stroke="#00FFBF" stroke-width="7" stroke-miterlimit="10"/>
<path d="M142.498 153.044L108.497 170.044" stroke="#00FFBF" stroke-width="7" stroke-miterlimit="10"/>
<path d="M99.6515 184.941C105.435 184.941 110.124 180.222 110.124 174.402C110.124 168.581 105.435 163.862 99.6515 163.862C93.8676 163.862 89.1788 168.581 89.1788 174.402C89.1788 180.222 93.8676 184.941 99.6515 184.941Z" stroke="#00FFBF" stroke-width="7" stroke-miterlimit="10"/>
<defs>
<filter id="filter0_d_0_1" x="292.776" y="195.493" width="24.075" height="24.0752" filterUnits="userSpaceOnUse" color-interpolation-filters="sRGB">
<feFlood flood-opacity="0" result="BackgroundImageFix"/>
<feColorMatrix in="SourceAlpha" type="matrix" values="0 0 0 0 0 0 0 0 0 0 0 0 0 0 0 0 0 0 127 0" result="hardAlpha"/>
<feOffset/>
<feGaussianBlur stdDeviation="3"/>
<feColorMatrix type="matrix" values="0 0 0 0 1 0 0 0 0 1 0 0 0 0 1 0 0 0 1 0"/>
<feBlend mode="normal" in2="BackgroundImageFix" result="effect1_dropShadow_0_1"/>
<feBlend mode="normal" in="SourceGraphic" in2="effect1_dropShadow_0_1" result="shape"/>
</filter>
<filter id="filter1_d_0_1" x="53.0591" y="51.0151" width="22.5057" height="22.5054" filterUnits="userSpaceOnUse" color-interpolation-filters="sRGB">
<feFlood flood-opacity="0" result="BackgroundImageFix"/>
<feColorMatrix in="SourceAlpha" type="matrix" values="0 0 0 0 0 0 0 0 0 0 0 0 0 0 0 0 0 0 127 0" result="hardAlpha"/>
<feOffset/>
<feGaussianBlur stdDeviation="3"/>
<feColorMatrix type="matrix" values="0 0 0 0 1 0 0 0 0 1 0 0 0 0 1 0 0 0 1 0"/>
<feBlend mode="normal" in2="BackgroundImageFix" result="effect1_dropShadow_0_1"/>
<feBlend mode="normal" in="SourceGraphic" in2="effect1_dropShadow_0_1" result="shape"/>
</filter>
<radialGradient id="paint0_radial_0_1" cx="0" cy="0" r="1" gradientUnits="userSpaceOnUse" gradientTransform="translate(304.816 207.534) rotate(150) scale(32.0897 9.62692)">
<stop stop-color="white"/>
<stop offset="0.12" stop-color="#C6C6FF" stop-opacity="0.78"/>
<stop offset="0.24" stop-color="#9292FF" stop-opacity="0.57"/>
<stop offset="0.37" stop-color="#6565FF" stop-opacity="0.4"/>
<stop offset="0.5" stop-color="#4040FF" stop-opacity="0.25"/>
<stop offset="0.62" stop-color="#2424FF" stop-opacity="0.14"/>
<stop offset="0.75" stop-color="#1010FF" stop-opacity="0.06"/>
<stop offset="0.88" stop-color="#0404FF" stop-opacity="0.02"/>
<stop offset="1" stop-color="#0000FF" stop-opacity="0"/>
</radialGradient>
<radialGradient id="paint1_radial_0_1" cx="0" cy="0" r="1" gradientUnits="userSpaceOnUse" gradientTransform="translate(304.811 207.532) rotate(60) scale(32.0897 9.62692)">
<stop stop-color="white"/>
<stop offset="0.12" stop-color="#C6C6FF" stop-opacity="0.78"/>
<stop offset="0.24" stop-color="#9292FF" stop-opacity="0.57"/>
<stop offset="0.37" stop-color="#6565FF" stop-opacity="0.4"/>
<stop offset="0.5" stop-color="#4040FF" stop-opacity="0.25"/>
<stop offset="0.62" stop-color="#2424FF" stop-opacity="0.14"/>
<stop offset="0.75" stop-color="#1010FF" stop-opacity="0.06"/>
<stop offset="0.88" stop-color="#0404FF" stop-opacity="0.02"/>
<stop offset="1" stop-color="#0000FF" stop-opacity="0"/>
</radialGradient>
<radialGradient id="paint2_radial_0_1" cx="0" cy="0" r="1" gradientUnits="userSpaceOnUse" gradientTransform="translate(304.814 207.53) rotate(-120) scale(6.81511)">
<stop stop-color="white"/>
<stop offset="0.12" stop-color="#C6C6FF" stop-opacity="0.78"/>
<stop offset="0.24" stop-color="#9292FF" stop-opacity="0.57"/>
<stop offset="0.37" stop-color="#6565FF" stop-opacity="0.4"/>
<stop offset="0.5" stop-color="#4040FF" stop-opacity="0.25"/>
<stop offset="0.62" stop-color="#2424FF" stop-opacity="0.14"/>
<stop offset="0.75" stop-color="#1010FF" stop-opacity="0.06"/>
<stop offset="0.88" stop-color="#0404FF" stop-opacity="0.02"/>
<stop offset="1" stop-color="#0000FF" stop-opacity="0"/>
</radialGradient>
<radialGradient id="paint3_radial_0_1" cx="0" cy="0" r="1" gradientUnits="userSpaceOnUse" gradientTransform="translate(64.3139 62.2715) rotate(150) scale(27.9196 8.37589)">
<stop stop-color="white"/>
<stop offset="0.12" stop-color="#C6C6FF" stop-opacity="0.78"/>
<stop offset="0.24" stop-color="#9292FF" stop-opacity="0.57"/>
<stop offset="0.37" stop-color="#6565FF" stop-opacity="0.4"/>
<stop offset="0.5" stop-color="#4040FF" stop-opacity="0.25"/>
<stop offset="0.62" stop-color="#2424FF" stop-opacity="0.14"/>
<stop offset="0.75" stop-color="#1010FF" stop-opacity="0.06"/>
<stop offset="0.88" stop-color="#0404FF" stop-opacity="0.02"/>
<stop offset="1" stop-color="#0000FF" stop-opacity="0"/>
</radialGradient>
<radialGradient id="paint4_radial_0_1" cx="0" cy="0" r="1" gradientUnits="userSpaceOnUse" gradientTransform="translate(64.3094 62.2696) rotate(60) scale(27.9196 8.37589)">
<stop stop-color="white"/>
<stop offset="0.12" stop-color="#C6C6FF" stop-opacity="0.78"/>
<stop offset="0.24" stop-color="#9292FF" stop-opacity="0.57"/>
<stop offset="0.37" stop-color="#6565FF" stop-opacity="0.4"/>
<stop offset="0.5" stop-color="#4040FF" stop-opacity="0.25"/>
<stop offset="0.62" stop-color="#2424FF" stop-opacity="0.14"/>
<stop offset="0.75" stop-color="#1010FF" stop-opacity="0.06"/>
<stop offset="0.88" stop-color="#0404FF" stop-opacity="0.02"/>
<stop offset="1" stop-color="#0000FF" stop-opacity="0"/>
</radialGradient>
<radialGradient id="paint5_radial_0_1" cx="0" cy="0" r="1" gradientUnits="userSpaceOnUse" gradientTransform="translate(64.312 62.2678) rotate(-120) scale(5.92949)">
<stop stop-color="white"/>
<stop offset="0.12" stop-color="#C6C6FF" stop-opacity="0.78"/>
<stop offset="0.24" stop-color="#9292FF" stop-opacity="0.57"/>
<stop offset="0.37" stop-color="#6565FF" stop-opacity="0.4"/>
<stop offset="0.5" stop-color="#4040FF" stop-opacity="0.25"/>
<stop offset="0.62" stop-color="#2424FF" stop-opacity="0.14"/>
<stop offset="0.75" stop-color="#1010FF" stop-opacity="0.06"/>
<stop offset="0.88" stop-color="#0404FF" stop-opacity="0.02"/>
<stop offset="1" stop-color="#0000FF" stop-opacity="0"/>
</radialGradient>
<linearGradient id="paint6_linear_0_1" x1="300.401" y1="157.802" x2="93.058" y2="157.802" gradientUnits="userSpaceOnUse">
<stop stop-color="#19002A"/>
<stop offset="0.99" stop-color="#5B008B" stop-opacity="0"/>
</linearGradient>
<linearGradient id="paint7_linear_0_1" x1="253.372" y1="89.9761" x2="157.601" y2="89.9761" gradientUnits="userSpaceOnUse">
<stop stop-color="#19002A"/>
<stop offset="0.99" stop-color="#5B008B" stop-opacity="0"/>
</linearGradient>
<linearGradient id="paint8_linear_0_1" x1="203.9" y1="48.4797" x2="158.104" y2="48.4797" gradientUnits="userSpaceOnUse">
<stop stop-color="#19002A"/>
<stop offset="0.99" stop-color="#5B008B" stop-opacity="0"/>
</linearGradient>
<linearGradient id="paint9_linear_0_1" x1="163.526" y1="142.385" x2="66.0068" y2="142.385" gradientUnits="userSpaceOnUse">
<stop stop-color="#19002A"/>
<stop offset="0.99" stop-color="#5B008B" stop-opacity="0"/>
</linearGradient>
<linearGradient id="paint10_linear_0_1" x1="300.813" y1="186.183" x2="161.379" y2="186.183" gradientUnits="userSpaceOnUse">
<stop stop-color="#00FFBF" stop-opacity="0"/>
<stop offset="0.99" stop-color="#00FFBF"/>
</linearGradient>
<linearGradient id="paint11_linear_0_1" x1="158.196" y1="74.9053" x2="103.326" y2="74.9053" gradientUnits="userSpaceOnUse">
<stop stop-color="#00FFBF"/>
<stop offset="0.99" stop-color="#00FFBF" stop-opacity="0"/>
</linearGradient>
<linearGradient id="paint12_linear_0_1" x1="197.11" y1="113.612" x2="172.678" y2="113.612" gradientUnits="userSpaceOnUse">
<stop stop-color="#00FFBF"/>
<stop offset="0.99" stop-color="#00FFBF" stop-opacity="0"/>
</linearGradient>
<linearGradient id="paint13_linear_0_1" x1="176.991" y1="0" x2="176.991" y2="280" gradientUnits="userSpaceOnUse">
<stop stop-color="#00FFBF"/>
<stop offset="1" stop-color="#00FFBF" stop-opacity="0"/>
</linearGradient>
<clipPath id="clip0_0_1">
<rect width="88.1903" height="88.1903" fill="white" transform="translate(320.954 147.295) rotate(60)"/>
</clipPath>
<clipPath id="clip1_0_1">
<rect width="76.7299" height="76.7299" fill="white" transform="translate(78.3545 9.86035) rotate(60)"/>
</clipPath>
</defs>
</svg>
