<svg width="118" height="132" viewBox="0 0 118 132" fill="none" xmlns="http://www.w3.org/2000/svg">
<g opacity="0.5">
<path style="mix-blend-mode:screen" d="M45.4439 107.871C44.7169 95.3578 33.9515 85.7956 21.4227 86.5217C8.89387 87.2632 -0.680605 97.9994 0.0463749 110.528C0.773354 123.056 11.5388 132.603 24.0676 131.877C36.6119 131.151 46.1709 120.399 45.4439 107.871Z" fill="url(#paint0_radial_3_3248)"/>
<path opacity="0.06" d="M25.4597 110.404C24.5162 111.501 22.8612 111.64 21.7475 110.697C20.6493 109.755 20.5101 108.102 21.4536 106.99C22.3971 105.893 111.29 6.84118 111.336 6.87208C111.692 7.18104 26.4032 109.307 25.4597 110.404Z" fill="white"/>
<path opacity="0.12" d="M25.3979 110.342C24.4853 111.408 22.8921 111.531 21.8248 110.62C20.7576 109.709 20.6338 108.117 21.5464 107.052C22.459 105.986 105.474 13.5455 105.551 13.5918C105.922 13.9008 26.3259 109.276 25.4133 110.342H25.3979Z" fill="white"/>
<path opacity="0.19" d="M25.3205 110.28C24.4389 111.3 22.9076 111.423 21.8712 110.558C20.8504 109.678 20.7266 108.148 21.5928 107.113C22.4745 106.094 99.6116 20.2345 99.7199 20.3272C100.091 20.6516 26.1867 109.261 25.3205 110.296V110.28Z" fill="white"/>
<path opacity="0.25" d="M25.2432 110.218C24.4079 111.207 22.923 111.315 21.9331 110.481C20.9432 109.647 20.8349 108.164 21.6701 107.175C22.5209 106.187 93.7803 26.9389 93.9195 27.047C94.3062 27.3714 26.0939 109.23 25.2432 110.218Z" fill="white"/>
<path opacity="0.31" d="M25.1814 110.157C24.3771 111.099 22.9541 111.207 21.9951 110.404C21.0515 109.6 20.9433 108.179 21.7476 107.222C22.5519 106.279 87.9491 33.6278 88.1193 33.7668C88.5214 34.1067 25.9857 109.199 25.1814 110.157Z" fill="white"/>
<path opacity="0.38" d="M25.104 110.095C24.3306 111.006 22.9694 111.115 22.0568 110.342C21.1442 109.57 21.036 108.21 21.8093 107.299C22.5827 106.387 82.1022 40.3477 82.3033 40.5022C82.7055 40.8575 25.8773 109.199 25.104 110.095Z" fill="white"/>
<path opacity="0.44" d="M25.0421 110.033C24.2997 110.898 23.0004 111.006 22.1342 110.265C21.268 109.523 21.1597 108.226 21.9022 107.361C22.6446 106.495 76.2864 47.0365 76.5184 47.2373C76.9361 47.5926 25.7845 109.183 25.0421 110.048V110.033Z" fill="white"/>
<path opacity="0.5" d="M24.9648 109.972C24.2533 110.806 23.0159 110.898 22.1807 110.188C21.3609 109.477 21.2526 108.241 21.9641 107.407C22.6756 106.573 70.4397 53.7258 70.7027 53.9421C71.1358 54.3128 25.6763 109.137 24.9648 109.956V109.972Z" fill="white"/>
<path opacity="0.56" d="M24.8875 109.909C24.2069 110.697 23.0314 110.79 22.2425 110.126C21.4537 109.446 21.3609 108.272 22.0414 107.484C22.722 106.696 64.6084 60.4452 64.9023 60.6924C65.3509 61.0631 25.5681 109.137 24.903 109.925L24.8875 109.909Z" fill="white"/>
<path opacity="0.62" d="M24.8256 109.848C24.1915 110.589 23.0623 110.682 22.3044 110.048C21.562 109.415 21.4692 108.287 22.1033 107.53C22.7375 106.789 58.7617 67.1342 59.0865 67.3968C59.535 67.783 25.4598 109.091 24.8256 109.848Z" fill="white"/>
<path opacity="0.69" d="M24.7483 109.786C24.1451 110.497 23.0778 110.574 22.3663 109.972C21.6548 109.369 21.5774 108.303 22.1807 107.593C22.7839 106.882 52.9303 73.8236 53.2861 74.1325C53.7501 74.5187 25.367 109.076 24.7483 109.786Z" fill="white"/>
<path opacity="0.75" d="M24.6709 109.724C24.0986 110.388 23.0932 110.466 22.4281 109.894C21.763 109.323 21.6857 108.318 22.258 107.654C22.8303 106.99 47.099 80.5277 47.4857 80.8521C47.9652 81.2537 25.2587 109.044 24.6864 109.724H24.6709Z" fill="white"/>
<path opacity="0.81" d="M24.6091 109.662C24.0677 110.296 23.1242 110.373 22.49 109.832C21.8558 109.292 21.7785 108.349 22.3199 107.716C22.8612 107.082 41.2523 87.2319 41.6699 87.5872C42.1494 88.0043 25.1504 109.044 24.6091 109.662Z" fill="white"/>
<path opacity="0.88" d="M24.5317 109.601C24.0213 110.188 23.1396 110.265 22.5519 109.755C21.9641 109.246 21.8867 108.365 22.3972 107.778C22.9076 107.191 35.4209 93.9367 35.8695 94.3074C36.3645 94.7245 25.0421 109.014 24.5317 109.601Z" fill="white"/>
<path opacity="0.94" d="M24.4544 109.539C23.9903 110.095 23.1551 110.157 22.5982 109.678C22.0414 109.214 21.9795 108.38 22.459 107.824C22.9231 107.268 29.5741 100.61 30.0536 101.027C30.5641 101.46 24.9338 108.983 24.4544 109.539Z" fill="white"/>
<path d="M24.3925 109.477C23.9594 109.987 23.186 110.049 22.6756 109.616C22.1652 109.184 22.1033 108.411 22.5364 107.901C22.9695 107.392 23.7429 107.33 24.2533 107.762C24.7637 108.195 24.8256 108.967 24.3925 109.477Z" fill="white"/>
</g>
<defs>
<radialGradient id="paint0_radial_3_3248" cx="0" cy="0" r="1" gradientUnits="userSpaceOnUse" gradientTransform="translate(22.6647 109.307) rotate(-3.33574) scale(22.7373 22.7085)">
<stop stop-color="white" stop-opacity="0.99"/>
<stop offset="0.08" stop-color="white" stop-opacity="0.78"/>
<stop offset="0.17" stop-color="white" stop-opacity="0.6"/>
<stop offset="0.26" stop-color="white" stop-opacity="0.44"/>
<stop offset="0.35" stop-color="white" stop-opacity="0.3"/>
<stop offset="0.45" stop-color="white" stop-opacity="0.19"/>
<stop offset="0.55" stop-color="white" stop-opacity="0.11"/>
<stop offset="0.67" stop-color="white" stop-opacity="0.05"/>
<stop offset="0.8" stop-color="white" stop-opacity="0.01"/>
<stop offset="1" stop-color="white" stop-opacity="0"/>
</radialGradient>
</defs>
</svg>
