<svg width="57" height="65" viewBox="0 0 57 65" fill="none" xmlns="http://www.w3.org/2000/svg">
<g opacity="0.5">
<path style="mix-blend-mode:screen" d="M22.0534 52.588C21.7131 46.5942 16.5469 42.0217 10.5455 42.3615C4.54402 42.7168 -0.0343984 47.8609 0.30589 53.8547C0.661646 59.8485 5.81238 64.4211 11.8138 64.0813C17.8153 63.726 22.3937 58.5818 22.0534 52.588Z" fill="url(#paint0_radial_3_3228)"/>
<path opacity="0.06" d="M12.4943 53.7928C12.0458 54.3181 11.2414 54.3798 10.7155 53.9318C10.1896 53.4839 10.1278 52.6806 10.5763 52.1553C11.0249 51.6301 53.6073 4.18963 53.6228 4.20508C53.7929 4.34411 12.9584 53.2676 12.4943 53.7928Z" fill="white"/>
<path opacity="0.12" d="M12.4634 53.7774C12.0303 54.2872 11.257 54.349 10.7465 53.9165C10.2361 53.4839 10.1742 52.7116 10.6073 52.2018C11.0404 51.692 50.8077 7.41834 50.8386 7.44923C51.0088 7.60371 12.8965 53.2677 12.4634 53.7774Z" fill="white"/>
<path opacity="0.19" d="M12.4324 53.7466C12.0148 54.2409 11.2723 54.3027 10.7774 53.8702C10.2824 53.4531 10.2206 52.7116 10.6536 52.2172C11.0713 51.7229 48.0235 10.6161 48.0699 10.647C48.2555 10.8015 12.85 53.2368 12.4324 53.7311V53.7466Z" fill="white"/>
<path opacity="0.25" d="M12.3859 53.7156C11.9838 54.1945 11.2723 54.2409 10.7928 53.8392C10.3287 53.4376 10.2668 52.727 10.669 52.2481C11.0712 51.7847 45.2083 13.8292 45.2701 13.8755C45.4557 14.03 12.7881 53.2367 12.3859 53.7156Z" fill="white"/>
<path opacity="0.31" d="M12.355 53.6849C11.9683 54.1329 11.2877 54.1947 10.8392 53.8085C10.3906 53.4223 10.3287 52.7426 10.7154 52.2946C11.1021 51.8466 42.4241 17.0425 42.5014 17.1198C42.6871 17.2897 12.7417 53.2524 12.355 53.7004V53.6849Z" fill="white"/>
<path opacity="0.38" d="M12.324 53.6541C11.9528 54.0866 11.3031 54.1329 10.87 53.7622C10.4369 53.3914 10.3905 52.7426 10.7617 52.3101C11.133 51.8776 39.6399 20.2403 39.7327 20.3175C39.9337 20.4875 12.7107 53.2216 12.3395 53.6541H12.324Z" fill="white"/>
<path opacity="0.44" d="M12.2931 53.6232C11.9374 54.0403 11.3186 54.0866 10.901 53.7313C10.4834 53.376 10.437 52.7581 10.7927 52.341C11.1485 51.9239 36.8403 23.4534 36.9485 23.5461C37.1496 23.7161 12.6488 53.2061 12.3085 53.6232H12.2931Z" fill="white"/>
<path opacity="0.5" d="M12.2622 53.5923C11.9219 53.994 11.3342 54.0403 10.932 53.7005C10.5299 53.3606 10.4834 52.7736 10.8237 52.3719C11.164 51.9703 34.0407 26.6666 34.1644 26.7748C34.3655 26.9447 12.6025 53.2061 12.2622 53.6078V53.5923Z" fill="white"/>
<path opacity="0.56" d="M12.2157 53.561C11.8909 53.9318 11.3186 53.9781 10.9474 53.6537C10.5762 53.3293 10.5298 52.7577 10.8391 52.387C11.164 52.0162 31.2255 29.8639 31.3647 29.9721C31.5812 30.1574 12.5251 53.1748 12.2157 53.5456V53.561Z" fill="white"/>
<path opacity="0.62" d="M12.1849 53.5302C11.8756 53.8855 11.3342 53.9319 10.9785 53.6229C10.6227 53.314 10.5763 52.7733 10.8857 52.418C11.195 52.0627 28.4414 33.0772 28.5961 33.2008C28.8126 33.3862 12.4943 53.1749 12.1849 53.5302Z" fill="white"/>
<path opacity="0.69" d="M12.1539 53.5149C11.86 53.8548 11.3495 53.9011 11.0092 53.6076C10.669 53.3141 10.6226 52.8043 10.9164 52.4644C11.2103 52.1246 25.6416 36.2905 25.8118 36.445C26.0283 36.6303 12.4323 53.1751 12.1539 53.5149Z" fill="white"/>
<path opacity="0.75" d="M12.123 53.4838C11.8445 53.8082 11.3651 53.8391 11.0403 53.5611C10.7154 53.283 10.6845 52.8041 10.9475 52.4797C11.2259 52.1553 22.8421 39.488 23.0277 39.6425C23.2597 39.8279 12.3859 53.1439 12.1075 53.4683L12.123 53.4838Z" fill="white"/>
<path opacity="0.81" d="M12.0766 53.4532C11.8136 53.7622 11.3651 53.793 11.0557 53.5304C10.7618 53.2678 10.7154 52.8198 10.9784 52.5109C11.2413 52.2019 20.0424 42.7015 20.2435 42.8714C20.4755 43.0722 12.3241 53.1442 12.0766 53.4377V53.4532Z" fill="white"/>
<path opacity="0.88" d="M12.0457 53.4221C11.7982 53.7002 11.3805 53.7311 11.1021 53.4994C10.8237 53.2522 10.7773 52.8351 11.0248 52.5571C11.2723 52.279 17.2582 45.9299 17.4748 46.1153C17.7068 46.3161 12.2931 53.1595 12.0457 53.4376V53.4221Z" fill="white"/>
<path opacity="0.94" d="M12.0148 53.3914C11.7827 53.654 11.3961 53.6849 11.1331 53.4686C10.8702 53.2369 10.8392 52.8507 11.0558 52.5881C11.2723 52.3255 14.4587 49.1432 14.6907 49.3286C14.9382 49.5294 12.2313 53.1442 12.0148 53.4069V53.3914Z" fill="white"/>
<path d="M11.9837 53.3604C11.7672 53.6075 11.4114 53.6384 11.164 53.4221C10.9165 53.2213 10.8855 52.8505 11.1021 52.6034C11.3186 52.3562 11.6899 52.3253 11.9219 52.5416C12.1693 52.7424 12.2003 53.1132 11.9837 53.3604Z" fill="white"/>
</g>
<defs>
<radialGradient id="paint0_radial_3_3228" cx="0" cy="0" r="1" gradientUnits="userSpaceOnUse" gradientTransform="translate(11.1243 53.3059) rotate(-3.33574) scale(10.8892 10.8754)">
<stop stop-color="white" stop-opacity="0.99"/>
<stop offset="0.08" stop-color="white" stop-opacity="0.78"/>
<stop offset="0.17" stop-color="white" stop-opacity="0.6"/>
<stop offset="0.26" stop-color="white" stop-opacity="0.44"/>
<stop offset="0.35" stop-color="white" stop-opacity="0.3"/>
<stop offset="0.45" stop-color="white" stop-opacity="0.19"/>
<stop offset="0.55" stop-color="white" stop-opacity="0.11"/>
<stop offset="0.67" stop-color="white" stop-opacity="0.05"/>
<stop offset="0.8" stop-color="white" stop-opacity="0.01"/>
<stop offset="1" stop-color="white" stop-opacity="0"/>
</radialGradient>
</defs>
</svg>
