<svg width="85" height="96" viewBox="0 0 85 96" fill="none" xmlns="http://www.w3.org/2000/svg">
<g opacity="0.5">
<path style="mix-blend-mode:screen" d="M33.1679 77.8961C32.642 68.8436 24.8618 61.9384 15.7978 62.4636C6.73372 62.9889 -0.180399 70.7592 0.345501 79.8116C0.871401 88.8641 8.65169 95.7693 17.7157 95.2441C26.7798 94.7188 33.6938 86.9486 33.1679 77.8961Z" fill="url(#paint0_radial_3_3208)"/>
<path opacity="0.06" d="M18.7364 79.7189C18.0559 80.5222 16.8494 80.6149 16.0606 79.9352C15.2562 79.2555 15.1634 78.0506 15.844 77.2627C16.5246 76.4594 80.7772 4.8739 80.8081 4.9048C81.0711 5.12107 19.4325 78.9311 18.7519 79.7344L18.7364 79.7189Z" fill="white"/>
<path opacity="0.12" d="M18.6902 79.6729C18.0251 80.4452 16.8804 80.5379 16.107 79.8737C15.3336 79.2249 15.2408 78.0663 15.9059 77.2939C16.571 76.5215 76.5701 9.70935 76.6165 9.74025C76.8794 9.97196 19.3553 78.9005 18.6902 79.6729Z" fill="white"/>
<path opacity="0.19" d="M18.6283 79.6417C17.9941 80.3832 16.8805 80.4759 16.138 79.8426C15.3956 79.2092 15.3028 78.097 15.9369 77.3555C16.5711 76.614 72.332 14.5753 72.3939 14.6216C72.6723 14.8533 19.247 78.9002 18.6128 79.6417H18.6283Z" fill="white"/>
<path opacity="0.25" d="M18.5818 79.5954C17.9785 80.306 16.8958 80.3987 16.1843 79.7808C15.4728 79.1784 15.3799 78.097 15.9986 77.3864C16.6018 76.6758 68.1246 19.395 68.2174 19.4722C68.4958 19.704 19.2005 78.8694 18.5818 79.58V79.5954Z" fill="white"/>
<path opacity="0.31" d="M18.5353 79.5492C17.9475 80.229 16.9267 80.3217 16.2306 79.7347C15.5501 79.1476 15.4573 78.1281 16.045 77.4329C16.6328 76.7532 63.902 24.2458 64.0102 24.3385C64.3041 24.5857 19.1076 78.8541 18.5198 79.5492H18.5353Z" fill="white"/>
<path opacity="0.38" d="M18.4735 79.5026C17.9167 80.1515 16.9268 80.2287 16.2772 79.6726C15.6275 79.1165 15.5501 78.1278 16.1069 77.479C16.6638 76.8302 59.6793 29.0808 59.8185 29.2043C60.1124 29.4515 19.0304 78.8538 18.4735 79.5026Z" fill="white"/>
<path opacity="0.44" d="M18.4271 79.4565C17.8857 80.0899 16.9422 80.1517 16.3235 79.6265C15.6893 79.0858 15.6275 78.1435 16.1534 77.5255C16.6948 76.8922 55.4567 33.9316 55.6269 34.0706C55.9362 34.3333 18.9685 78.8386 18.4271 79.472V79.4565Z" fill="white"/>
<path opacity="0.5" d="M18.3808 79.4103C17.8704 80.0127 16.9733 80.0745 16.37 79.5648C15.7668 79.055 15.7049 78.159 16.2153 77.5566C16.7257 76.9541 51.2496 38.7669 51.4352 38.9214C51.7445 39.184 18.8912 78.8078 18.3808 79.4103Z" fill="white"/>
<path opacity="0.56" d="M18.3189 79.3639C17.8394 79.9355 16.9733 79.9973 16.401 79.5184C15.8287 79.0395 15.7668 78.1744 16.2463 77.6028C16.7258 77.0313 47.0114 43.602 47.228 43.7874C47.5528 44.0655 18.7984 78.8078 18.3189 79.3639Z" fill="white"/>
<path opacity="0.62" d="M18.2724 79.3331C17.8084 79.8737 17.0041 79.9355 16.4472 79.4721C15.9059 79.0086 15.844 78.2054 16.308 77.6492C16.772 77.1086 42.8041 48.4527 43.0361 48.6381C43.361 48.9162 18.7364 78.7769 18.2724 79.3176V79.3331Z" fill="white"/>
<path opacity="0.69" d="M18.2261 79.2866C17.793 79.7964 17.0196 79.8582 16.5092 79.4256C15.9988 78.9931 15.9369 78.2207 16.37 77.7109C16.8031 77.2011 38.597 53.3033 38.8445 53.5195C39.1848 53.7976 18.6592 78.7768 18.2261 79.2866Z" fill="white"/>
<path opacity="0.75" d="M18.1642 79.2404C17.7465 79.7193 17.0196 79.781 16.5401 79.3639C16.0606 78.9468 15.9987 78.2208 16.4163 77.7419C16.8339 77.263 34.3742 58.1385 34.6526 58.3703C34.9929 58.6638 18.5818 78.746 18.1796 79.2404H18.1642Z" fill="white"/>
<path opacity="0.81" d="M18.1178 79.1938C17.7311 79.6418 17.0505 79.7035 16.5864 79.3173C16.1379 78.9311 16.0761 78.2514 16.4628 77.788C16.8494 77.34 30.1516 62.9889 30.4455 63.2361C30.8012 63.5296 18.5045 78.7458 18.1178 79.1938Z" fill="white"/>
<path opacity="0.88" d="M18.0558 79.1477C17.6846 79.5802 17.0504 79.6265 16.6173 79.2558C16.1842 78.885 16.1378 78.2517 16.5091 77.8191C16.8803 77.3866 25.9288 67.8089 26.2537 68.087C26.6094 68.396 18.4271 78.7151 18.0713 79.1322L18.0558 79.1477Z" fill="white"/>
<path opacity="0.94" d="M18.0096 79.1013C17.6693 79.5029 17.066 79.5492 16.6793 79.2094C16.2771 78.8695 16.2308 78.2671 16.5711 77.8809C16.9114 77.4792 21.7063 72.675 22.0621 72.9685C22.4178 73.2774 18.3653 78.7151 18.0096 79.1167V79.1013Z" fill="white"/>
<path d="M17.9632 79.0549C17.6538 79.4256 17.097 79.4719 16.7258 79.1475C16.3546 78.8386 16.3082 78.2824 16.633 77.9117C16.9423 77.5409 17.4992 77.4946 17.8704 77.819C18.2416 78.128 18.288 78.6841 17.9632 79.0549Z" fill="white"/>
</g>
<defs>
<radialGradient id="paint0_radial_3_3208" cx="0" cy="0" r="1" gradientUnits="userSpaceOnUse" gradientTransform="translate(16.704 78.9165) rotate(-3.33574) scale(16.4421 16.4212)">
<stop stop-color="white" stop-opacity="0.99"/>
<stop offset="0.08" stop-color="white" stop-opacity="0.78"/>
<stop offset="0.17" stop-color="white" stop-opacity="0.6"/>
<stop offset="0.26" stop-color="white" stop-opacity="0.44"/>
<stop offset="0.35" stop-color="white" stop-opacity="0.3"/>
<stop offset="0.45" stop-color="white" stop-opacity="0.19"/>
<stop offset="0.55" stop-color="white" stop-opacity="0.11"/>
<stop offset="0.67" stop-color="white" stop-opacity="0.05"/>
<stop offset="0.8" stop-color="white" stop-opacity="0.01"/>
<stop offset="1" stop-color="white" stop-opacity="0"/>
</radialGradient>
</defs>
</svg>
