<svg width="119" height="132" viewBox="0 0 119 132" fill="none" xmlns="http://www.w3.org/2000/svg">
<path style="mix-blend-mode:screen" d="M46.3601 107.963C45.6332 95.4502 34.8677 85.8879 22.3389 86.614C9.81009 87.34 0.235655 98.0918 0.962635 110.62C1.68961 123.148 12.4551 132.695 24.9839 131.969C37.5282 131.243 47.0871 120.491 46.3601 107.963Z" fill="url(#paint0_radial_3_3188)"/>
<path opacity="0.06" d="M26.3915 110.497C25.448 111.593 23.7929 111.732 22.6792 110.79C21.581 109.848 21.4418 108.195 22.3854 107.083C23.3289 105.986 112.221 6.93396 112.268 6.96485C112.624 7.27381 27.335 109.4 26.3915 110.497Z" fill="white"/>
<path opacity="0.12" d="M26.3141 110.435C25.4015 111.501 23.8084 111.624 22.7411 110.713C21.6738 109.801 21.5501 108.21 22.4627 107.144C23.3753 106.078 106.39 13.6382 106.467 13.6846C106.839 13.9935 27.2422 109.369 26.3296 110.435H26.3141Z" fill="white"/>
<path opacity="0.19" d="M26.2368 110.373C25.3551 111.393 23.8238 111.516 22.7875 110.651C21.7666 109.771 21.6429 108.241 22.5091 107.206C23.3907 106.187 100.528 20.3273 100.636 20.42C101.007 20.7444 27.103 109.354 26.2368 110.389V110.373Z" fill="white"/>
<path opacity="0.25" d="M26.175 110.311C25.3398 111.3 23.8549 111.408 22.865 110.574C21.8751 109.74 21.7668 108.257 22.602 107.268C23.4527 106.279 94.7122 27.0316 94.8514 27.1398C95.2381 27.4642 27.0258 109.323 26.175 110.311Z" fill="white"/>
<path opacity="0.31" d="M26.0975 110.249C25.2932 111.192 23.8702 111.3 22.9112 110.497C21.9677 109.693 21.8594 108.272 22.6637 107.314C23.468 106.372 88.8653 33.7205 89.0354 33.8596C89.4376 34.1994 26.9019 109.307 26.0975 110.249Z" fill="white"/>
<path opacity="0.38" d="M26.0203 110.188C25.247 111.099 23.8858 111.207 22.9732 110.435C22.0606 109.663 21.9523 108.303 22.7257 107.392C23.4991 106.48 83.0186 40.4405 83.2197 40.595C83.6219 40.9503 26.7937 109.292 26.0203 110.188Z" fill="white"/>
<path opacity="0.44" d="M25.9584 110.126C25.2159 110.991 23.9167 111.099 23.0505 110.357C22.1843 109.616 22.076 108.318 22.8184 107.453C23.5609 106.588 77.2027 47.1293 77.4347 47.3301C77.8523 47.6854 26.7008 109.276 25.9584 110.141V110.126Z" fill="white"/>
<path opacity="0.5" d="M25.8811 110.064C25.1696 110.898 23.9322 110.991 23.0969 110.28C22.2771 109.57 22.1688 108.334 22.8804 107.499C23.5919 106.665 71.356 53.8181 71.6189 54.0344C72.052 54.4051 26.5926 109.23 25.8811 110.048V110.064Z" fill="white"/>
<path opacity="0.56" d="M25.8191 110.002C25.1385 110.79 23.963 110.883 23.1742 110.218C22.3853 109.539 22.2925 108.365 22.9731 107.577C23.6537 106.789 65.5401 60.538 65.834 60.7852C66.2825 61.1559 26.4997 109.23 25.8346 110.018L25.8191 110.002Z" fill="white"/>
<path opacity="0.62" d="M25.7418 109.94C25.1076 110.682 23.9785 110.775 23.2205 110.141C22.4781 109.508 22.3853 108.38 23.0195 107.623C23.6536 106.882 59.6778 67.227 60.0026 67.4896C60.4512 67.8758 26.376 109.183 25.7418 109.94Z" fill="white"/>
<path opacity="0.69" d="M25.6644 109.879C25.0612 110.589 23.9939 110.666 23.2824 110.064C22.5709 109.461 22.4936 108.396 23.0968 107.685C23.7 106.974 53.8465 73.9159 54.2022 74.2248C54.6663 74.611 26.2831 109.168 25.6644 109.879Z" fill="white"/>
<path opacity="0.75" d="M25.6027 109.817C25.0304 110.481 24.025 110.558 23.3599 110.002C22.6948 109.43 22.6174 108.426 23.1898 107.762C23.7621 107.098 48.0308 80.6356 48.4175 80.96C48.897 81.3616 26.1905 109.152 25.6182 109.832L25.6027 109.817Z" fill="white"/>
<path opacity="0.81" d="M25.5253 109.771C24.9839 110.404 24.0404 110.481 23.4063 109.941C22.7721 109.4 22.6948 108.458 23.2361 107.824C23.7775 107.191 42.1685 87.3403 42.5862 87.6956C43.0657 88.1127 26.0667 109.153 25.5253 109.771Z" fill="white"/>
<path opacity="0.88" d="M25.448 109.709C24.9375 110.296 24.0559 110.373 23.4681 109.863C22.8803 109.353 22.803 108.473 23.3134 107.886C23.8239 107.299 36.3372 94.0446 36.7858 94.4153C37.2808 94.8324 25.9584 109.122 25.448 109.709Z" fill="white"/>
<path opacity="0.94" d="M25.3861 109.647C24.9221 110.203 24.0868 110.265 23.53 109.786C22.9732 109.322 22.9113 108.488 23.3908 107.932C23.8548 107.376 30.5059 100.718 30.9854 101.135C31.4958 101.568 25.8656 109.091 25.3861 109.631V109.647Z" fill="white"/>
<path d="M25.3087 109.585C24.8756 110.095 24.1022 110.157 23.5917 109.724C23.0813 109.292 23.0194 108.519 23.4525 108.009C23.8856 107.5 24.659 107.438 25.1695 107.87C25.6799 108.303 25.7418 109.075 25.3087 109.585Z" fill="white"/>
<defs>
<radialGradient id="paint0_radial_3_3188" cx="0" cy="0" r="1" gradientUnits="userSpaceOnUse" gradientTransform="translate(23.6173 109.366) rotate(-3.33575) scale(22.7373 22.7085)">
<stop stop-color="white" stop-opacity="0.99"/>
<stop offset="0.08" stop-color="white" stop-opacity="0.78"/>
<stop offset="0.17" stop-color="white" stop-opacity="0.6"/>
<stop offset="0.26" stop-color="white" stop-opacity="0.44"/>
<stop offset="0.35" stop-color="white" stop-opacity="0.3"/>
<stop offset="0.45" stop-color="white" stop-opacity="0.19"/>
<stop offset="0.55" stop-color="white" stop-opacity="0.11"/>
<stop offset="0.67" stop-color="white" stop-opacity="0.05"/>
<stop offset="0.8" stop-color="white" stop-opacity="0.01"/>
<stop offset="1" stop-color="white" stop-opacity="0"/>
</radialGradient>
</defs>
</svg>
