<svg width="227" height="255" viewBox="0 0 227 255" fill="none" xmlns="http://www.w3.org/2000/svg">
<path style="mix-blend-mode:screen" d="M88.2734 208.315C86.8659 184.108 66.0619 165.632 41.8086 167.038C17.5708 168.459 -0.928466 189.221 0.47909 213.444C1.90211 237.65 22.6906 256.142 46.9439 254.72C71.1817 253.315 89.6965 232.537 88.2734 208.315Z" fill="url(#paint0_radial_3_3168)"/>
<path opacity="0.06" d="M49.6507 213.212C47.8255 215.344 44.6082 215.606 42.4737 213.783C40.3391 211.96 40.0762 208.747 41.9014 206.615C43.7266 204.484 215.619 12.9607 215.68 13.0225C216.376 13.6095 51.4604 211.08 49.6352 213.227L49.6507 213.212Z" fill="white"/>
<path opacity="0.12" d="M49.5116 213.088C47.7482 215.143 44.6547 215.39 42.5975 213.629C40.5403 211.868 40.2928 208.778 42.0562 206.724C43.8195 204.669 204.343 25.9061 204.466 26.0142C205.178 26.6167 51.2749 211.034 49.5116 213.088Z" fill="white"/>
<path opacity="0.19" d="M49.3723 212.965C47.6709 214.942 44.7011 215.174 42.7058 213.49C40.7259 211.806 40.4784 208.825 42.1799 206.832C43.8813 204.855 193.051 38.8515 193.237 39.006C193.964 39.6239 51.0738 210.972 49.3723 212.949V212.965Z" fill="white"/>
<path opacity="0.25" d="M49.2331 212.857C47.609 214.757 44.732 214.989 42.8295 213.366C40.927 211.744 40.695 208.871 42.3191 206.971C43.9432 205.071 181.76 51.8279 182.007 52.0442C182.765 52.6775 50.8572 210.957 49.2331 212.872V212.857Z" fill="white"/>
<path opacity="0.31" d="M49.0939 212.733C47.5316 214.556 44.7784 214.772 42.9532 213.212C41.128 211.651 40.9115 208.902 42.4737 207.079C44.036 205.256 170.484 64.7729 170.793 65.0355C171.567 65.6998 50.6716 210.895 49.0939 212.733Z" fill="white"/>
<path opacity="0.38" d="M48.9546 212.609C47.4543 214.355 44.8248 214.571 43.0615 213.073C41.3136 211.574 41.0971 208.948 42.5974 207.187C44.0978 205.441 159.193 77.7182 159.564 78.0426C160.353 78.7223 50.455 210.864 48.9546 212.609Z" fill="white"/>
<path opacity="0.44" d="M48.8154 212.501C47.3769 214.17 44.8557 214.37 43.1852 212.949C41.5147 211.513 41.3136 208.995 42.7366 207.326C44.1751 205.658 147.901 90.6946 148.334 91.0653C149.139 91.7605 50.2539 210.833 48.8154 212.517V212.501Z" fill="white"/>
<path opacity="0.5" d="M48.6763 212.377C47.3151 213.968 44.9022 214.169 43.2935 212.794C41.7003 211.435 41.4993 209.025 42.8759 207.419C44.2371 205.827 136.61 103.624 137.105 104.041C137.94 104.752 50.0374 210.755 48.6763 212.362V212.377Z" fill="white"/>
<path opacity="0.56" d="M48.5371 212.254C47.2378 213.783 44.9486 213.953 43.4173 212.655C41.886 211.358 41.7159 209.072 43.0151 207.542C44.3144 206.013 125.334 116.585 125.875 117.064C126.726 117.79 49.8364 210.74 48.5371 212.254Z" fill="white"/>
<path opacity="0.62" d="M48.4134 212.146C47.176 213.598 44.995 213.768 43.5565 212.532C42.1026 211.296 41.9324 209.118 43.1698 207.681C44.4073 206.229 114.058 129.561 114.677 130.087C115.543 130.828 49.6508 210.709 48.4134 212.161V212.146Z" fill="white"/>
<path opacity="0.69" d="M48.2741 212.022C47.0986 213.397 45.0414 213.552 43.6648 212.378C42.2881 211.204 42.1335 209.149 43.309 207.774C44.4845 206.399 102.767 142.491 103.447 143.063C104.344 143.82 49.4496 210.632 48.2741 212.007V212.022Z" fill="white"/>
<path opacity="0.75" d="M48.1349 211.899C47.0212 213.196 45.0878 213.351 43.7885 212.239C42.4892 211.142 42.3345 209.195 43.4482 207.898C44.5464 206.6 91.4752 155.452 92.2177 156.085C93.1303 156.858 49.2331 210.616 48.1349 211.899Z" fill="white"/>
<path opacity="0.81" d="M47.9957 211.79C46.9593 213.011 45.1187 213.15 43.8967 212.115C42.6748 211.08 42.5356 209.241 43.5719 208.021C44.6082 206.801 80.1838 168.413 80.9882 169.092C81.9162 169.88 49.032 210.57 47.9957 211.79Z" fill="white"/>
<path opacity="0.88" d="M47.8566 211.667C46.8821 212.81 45.1652 212.949 44.0206 211.976C42.876 211.003 42.7367 209.288 43.7267 208.145C44.7011 207.002 68.908 181.374 69.7742 182.1C70.7177 182.903 48.831 210.524 47.8566 211.667Z" fill="white"/>
<path opacity="0.94" d="M47.7173 211.559C46.8047 212.625 45.1961 212.748 44.1443 211.837C43.077 210.925 42.9533 209.334 43.8659 208.268C44.7785 207.202 57.6166 194.334 58.5447 195.122C59.5191 195.941 48.6299 210.493 47.7173 211.559Z" fill="white"/>
<path d="M47.5781 211.435C46.7274 212.424 45.2425 212.532 44.2526 211.698C43.2626 210.848 43.1544 209.365 43.9896 208.377C44.8249 207.388 46.3252 207.28 47.3151 208.114C48.3051 208.964 48.4288 210.447 47.5781 211.435Z" fill="white"/>
<defs>
<radialGradient id="paint0_radial_3_3168" cx="0" cy="0" r="1" gradientUnits="userSpaceOnUse" gradientTransform="translate(44.3126 210.965) rotate(-3.33574) scale(43.9743 43.9185)">
<stop stop-color="white" stop-opacity="0.99"/>
<stop offset="0.08" stop-color="white" stop-opacity="0.78"/>
<stop offset="0.17" stop-color="white" stop-opacity="0.6"/>
<stop offset="0.26" stop-color="white" stop-opacity="0.44"/>
<stop offset="0.35" stop-color="white" stop-opacity="0.3"/>
<stop offset="0.45" stop-color="white" stop-opacity="0.19"/>
<stop offset="0.55" stop-color="white" stop-opacity="0.11"/>
<stop offset="0.67" stop-color="white" stop-opacity="0.05"/>
<stop offset="0.8" stop-color="white" stop-opacity="0.01"/>
<stop offset="1" stop-color="white" stop-opacity="0"/>
</radialGradient>
</defs>
</svg>
